<mxfile host="app.diagrams.net" modified="2023-04-11T11:43:31.503Z" agent="Mozilla/5.0 (Windows NT 10.0; Win64; x64) AppleWebKit/537.36 (KHTML, like Gecko) Chrome/112.0.0.0 Safari/537.36 Edg/112.0.1722.34" version="21.1.5" etag="S1WZJKAA7KFuVXU_fkKQ" type="device">
  <diagram id="0zQz6QYnno5ATx9tujKN" name="Pagina-1">
    <mxGraphModel dx="3122" dy="3651" grid="1" gridSize="10" guides="1" tooltips="1" connect="1" arrows="1" fold="1" page="1" pageScale="1" pageWidth="827" pageHeight="1169" math="0" shadow="0">
      <root>
        <mxCell id="0" />
        <mxCell id="1" parent="0" />
        <mxCell id="uQ_xCeELiff1Q2TgGja5-1" value="" style="ellipse;whiteSpace=wrap;html=1;aspect=fixed;" vertex="1" parent="1">
          <mxGeometry x="18" y="-1490" width="80" height="80" as="geometry" />
        </mxCell>
        <mxCell id="uQ_xCeELiff1Q2TgGja5-2" value="" style="ellipse;whiteSpace=wrap;html=1;aspect=fixed;" vertex="1" parent="1">
          <mxGeometry x="18" y="-1330" width="80" height="80" as="geometry" />
        </mxCell>
        <mxCell id="uQ_xCeELiff1Q2TgGja5-5" value="" style="rounded=0;whiteSpace=wrap;html=1;" vertex="1" parent="1">
          <mxGeometry x="18" y="-1380" width="80" height="10" as="geometry" />
        </mxCell>
        <mxCell id="uQ_xCeELiff1Q2TgGja5-6" value="" style="endArrow=classic;html=1;rounded=0;exitX=0.5;exitY=1;exitDx=0;exitDy=0;entryX=0.5;entryY=0;entryDx=0;entryDy=0;" edge="1" parent="1" source="uQ_xCeELiff1Q2TgGja5-1" target="uQ_xCeELiff1Q2TgGja5-5">
          <mxGeometry width="50" height="50" relative="1" as="geometry">
            <mxPoint x="258" y="-1270" as="sourcePoint" />
            <mxPoint x="308" y="-1320" as="targetPoint" />
          </mxGeometry>
        </mxCell>
        <mxCell id="uQ_xCeELiff1Q2TgGja5-7" value="" style="endArrow=classic;html=1;rounded=0;exitX=0.5;exitY=1;exitDx=0;exitDy=0;entryX=0.5;entryY=0;entryDx=0;entryDy=0;" edge="1" parent="1" source="uQ_xCeELiff1Q2TgGja5-5" target="uQ_xCeELiff1Q2TgGja5-2">
          <mxGeometry width="50" height="50" relative="1" as="geometry">
            <mxPoint x="258" y="-1270" as="sourcePoint" />
            <mxPoint x="308" y="-1320" as="targetPoint" />
          </mxGeometry>
        </mxCell>
        <mxCell id="uQ_xCeELiff1Q2TgGja5-9" value="" style="endArrow=classic;html=1;rounded=0;exitX=0.5;exitY=1;exitDx=0;exitDy=0;entryX=0.25;entryY=0;entryDx=0;entryDy=0;" edge="1" parent="1" source="uQ_xCeELiff1Q2TgGja5-364" target="uQ_xCeELiff1Q2TgGja5-12">
          <mxGeometry width="50" height="50" relative="1" as="geometry">
            <mxPoint x="60" y="-670" as="sourcePoint" />
            <mxPoint x="60" y="-640" as="targetPoint" />
          </mxGeometry>
        </mxCell>
        <mxCell id="uQ_xCeELiff1Q2TgGja5-10" value="Start" style="text;html=1;strokeColor=none;fillColor=none;align=center;verticalAlign=middle;whiteSpace=wrap;rounded=0;" vertex="1" parent="1">
          <mxGeometry x="88" y="-1305" width="60" height="30" as="geometry" />
        </mxCell>
        <mxCell id="uQ_xCeELiff1Q2TgGja5-12" value="" style="rounded=0;whiteSpace=wrap;html=1;" vertex="1" parent="1">
          <mxGeometry x="40" y="-600" width="80" height="10" as="geometry" />
        </mxCell>
        <mxCell id="uQ_xCeELiff1Q2TgGja5-14" value="Read state" style="text;html=1;strokeColor=none;fillColor=none;align=center;verticalAlign=middle;whiteSpace=wrap;rounded=0;" vertex="1" parent="1">
          <mxGeometry x="110" y="-535" width="60" height="30" as="geometry" />
        </mxCell>
        <mxCell id="uQ_xCeELiff1Q2TgGja5-15" value="Init" style="text;html=1;strokeColor=none;fillColor=none;align=center;verticalAlign=middle;whiteSpace=wrap;rounded=0;" vertex="1" parent="1">
          <mxGeometry x="88" y="-1465" width="60" height="30" as="geometry" />
        </mxCell>
        <mxCell id="uQ_xCeELiff1Q2TgGja5-16" value="" style="ellipse;whiteSpace=wrap;html=1;aspect=fixed;fillColor=#000000;" vertex="1" parent="1">
          <mxGeometry x="48" y="-1460" width="20" height="20" as="geometry" />
        </mxCell>
        <mxCell id="uQ_xCeELiff1Q2TgGja5-17" value="" style="ellipse;shape=cloud;whiteSpace=wrap;html=1;" vertex="1" parent="1">
          <mxGeometry x="325" y="-800" width="170" height="120" as="geometry" />
        </mxCell>
        <mxCell id="uQ_xCeELiff1Q2TgGja5-18" value="Slaved or event dispatch&lt;br&gt;threads" style="text;html=1;strokeColor=none;fillColor=none;align=center;verticalAlign=middle;whiteSpace=wrap;rounded=0;" vertex="1" parent="1">
          <mxGeometry x="385" y="-755" width="60" height="30" as="geometry" />
        </mxCell>
        <mxCell id="uQ_xCeELiff1Q2TgGja5-19" value="&lt;h1&gt;Master-Petri&lt;/h1&gt;" style="text;html=1;strokeColor=none;fillColor=none;spacing=5;spacingTop=-20;whiteSpace=wrap;overflow=hidden;rounded=0;" vertex="1" parent="1">
          <mxGeometry x="-285" y="-1480" width="190" height="120" as="geometry" />
        </mxCell>
        <mxCell id="uQ_xCeELiff1Q2TgGja5-20" value="" style="ellipse;whiteSpace=wrap;html=1;aspect=fixed;" vertex="1" parent="1">
          <mxGeometry x="40" y="-560" width="80" height="80" as="geometry" />
        </mxCell>
        <mxCell id="uQ_xCeELiff1Q2TgGja5-21" value="" style="endArrow=classic;html=1;rounded=0;exitX=0.5;exitY=1;exitDx=0;exitDy=0;" edge="1" parent="1" source="uQ_xCeELiff1Q2TgGja5-12" target="uQ_xCeELiff1Q2TgGja5-20">
          <mxGeometry width="50" height="50" relative="1" as="geometry">
            <mxPoint x="130" y="-560" as="sourcePoint" />
            <mxPoint x="180" y="-610" as="targetPoint" />
          </mxGeometry>
        </mxCell>
        <mxCell id="uQ_xCeELiff1Q2TgGja5-22" value="" style="ellipse;whiteSpace=wrap;html=1;aspect=fixed;" vertex="1" parent="1">
          <mxGeometry x="200" y="-560" width="80" height="80" as="geometry" />
        </mxCell>
        <mxCell id="uQ_xCeELiff1Q2TgGja5-23" value="" style="endArrow=classic;html=1;rounded=0;exitX=0.5;exitY=0;exitDx=0;exitDy=0;entryX=0.75;entryY=0;entryDx=0;entryDy=0;" edge="1" parent="1" source="uQ_xCeELiff1Q2TgGja5-22" target="uQ_xCeELiff1Q2TgGja5-12">
          <mxGeometry width="50" height="50" relative="1" as="geometry">
            <mxPoint x="130" y="-560" as="sourcePoint" />
            <mxPoint x="220" y="-640" as="targetPoint" />
            <Array as="points">
              <mxPoint x="240" y="-640" />
              <mxPoint x="100" y="-640" />
            </Array>
          </mxGeometry>
        </mxCell>
        <mxCell id="uQ_xCeELiff1Q2TgGja5-24" value="" style="ellipse;whiteSpace=wrap;html=1;aspect=fixed;fillColor=#000000;" vertex="1" parent="1">
          <mxGeometry x="230" y="-530" width="20" height="20" as="geometry" />
        </mxCell>
        <mxCell id="uQ_xCeELiff1Q2TgGja5-25" value="" style="edgeStyle=orthogonalEdgeStyle;rounded=0;orthogonalLoop=1;jettySize=auto;html=1;" edge="1" parent="1" source="uQ_xCeELiff1Q2TgGja5-26">
          <mxGeometry relative="1" as="geometry">
            <mxPoint x="395" y="-509.9999999999998" as="targetPoint" />
          </mxGeometry>
        </mxCell>
        <mxCell id="uQ_xCeELiff1Q2TgGja5-26" value="" style="rounded=0;whiteSpace=wrap;html=1;" vertex="1" parent="1">
          <mxGeometry x="355" y="-600" width="80" height="10" as="geometry" />
        </mxCell>
        <mxCell id="uQ_xCeELiff1Q2TgGja5-27" value="" style="ellipse;whiteSpace=wrap;html=1;aspect=fixed;" vertex="1" parent="1">
          <mxGeometry x="355" y="-560" width="80" height="80" as="geometry" />
        </mxCell>
        <mxCell id="uQ_xCeELiff1Q2TgGja5-28" value="" style="endArrow=classic;html=1;rounded=0;exitX=0.5;exitY=1;exitDx=0;exitDy=0;" edge="1" parent="1" source="uQ_xCeELiff1Q2TgGja5-26" target="uQ_xCeELiff1Q2TgGja5-27">
          <mxGeometry width="50" height="50" relative="1" as="geometry">
            <mxPoint x="450" y="-560" as="sourcePoint" />
            <mxPoint x="500" y="-610" as="targetPoint" />
          </mxGeometry>
        </mxCell>
        <mxCell id="uQ_xCeELiff1Q2TgGja5-29" value="" style="endArrow=classic;html=1;rounded=0;entryX=0.25;entryY=0;entryDx=0;entryDy=0;" edge="1" parent="1" target="uQ_xCeELiff1Q2TgGja5-26">
          <mxGeometry width="50" height="50" relative="1" as="geometry">
            <mxPoint x="240" y="-560" as="sourcePoint" />
            <mxPoint x="360" y="-640" as="targetPoint" />
            <Array as="points">
              <mxPoint x="240" y="-640" />
              <mxPoint x="375" y="-640" />
            </Array>
          </mxGeometry>
        </mxCell>
        <mxCell id="uQ_xCeELiff1Q2TgGja5-30" value="" style="endArrow=classic;html=1;rounded=0;entryX=0.796;entryY=-0.106;entryDx=0;entryDy=0;entryPerimeter=0;exitX=0.55;exitY=0.95;exitDx=0;exitDy=0;exitPerimeter=0;" edge="1" parent="1" source="uQ_xCeELiff1Q2TgGja5-17" target="uQ_xCeELiff1Q2TgGja5-26">
          <mxGeometry width="50" height="50" relative="1" as="geometry">
            <mxPoint x="310" y="-590" as="sourcePoint" />
            <mxPoint x="360" y="-640" as="targetPoint" />
          </mxGeometry>
        </mxCell>
        <mxCell id="uQ_xCeELiff1Q2TgGja5-31" value="Change&lt;br&gt;state" style="text;html=1;strokeColor=none;fillColor=none;align=center;verticalAlign=middle;whiteSpace=wrap;rounded=0;" vertex="1" parent="1">
          <mxGeometry x="435" y="-535" width="60" height="30" as="geometry" />
        </mxCell>
        <mxCell id="uQ_xCeELiff1Q2TgGja5-32" value="" style="rounded=0;whiteSpace=wrap;html=1;" vertex="1" parent="1">
          <mxGeometry x="40" y="-440" width="80" height="10" as="geometry" />
        </mxCell>
        <mxCell id="uQ_xCeELiff1Q2TgGja5-33" value="" style="endArrow=classic;html=1;rounded=0;exitX=0.5;exitY=1;exitDx=0;exitDy=0;entryX=0.5;entryY=0;entryDx=0;entryDy=0;" edge="1" parent="1" source="uQ_xCeELiff1Q2TgGja5-20" target="uQ_xCeELiff1Q2TgGja5-32">
          <mxGeometry width="50" height="50" relative="1" as="geometry">
            <mxPoint x="260" y="-440" as="sourcePoint" />
            <mxPoint x="310" y="-490" as="targetPoint" />
          </mxGeometry>
        </mxCell>
        <mxCell id="uQ_xCeELiff1Q2TgGja5-34" value="" style="endArrow=classic;html=1;rounded=0;exitX=0.75;exitY=1;exitDx=0;exitDy=0;" edge="1" parent="1" source="uQ_xCeELiff1Q2TgGja5-32">
          <mxGeometry width="50" height="50" relative="1" as="geometry">
            <mxPoint x="80" y="-420" as="sourcePoint" />
            <mxPoint x="240" y="-480" as="targetPoint" />
            <Array as="points">
              <mxPoint x="100" y="-400" />
              <mxPoint x="240" y="-400" />
            </Array>
          </mxGeometry>
        </mxCell>
        <mxCell id="uQ_xCeELiff1Q2TgGja5-35" value="" style="rounded=0;whiteSpace=wrap;html=1;" vertex="1" parent="1">
          <mxGeometry x="355" y="-440" width="80" height="10" as="geometry" />
        </mxCell>
        <mxCell id="uQ_xCeELiff1Q2TgGja5-36" value="" style="endArrow=classic;html=1;rounded=0;exitX=0.5;exitY=1;exitDx=0;exitDy=0;entryX=0.5;entryY=0;entryDx=0;entryDy=0;" edge="1" parent="1" source="uQ_xCeELiff1Q2TgGja5-27" target="uQ_xCeELiff1Q2TgGja5-35">
          <mxGeometry width="50" height="50" relative="1" as="geometry">
            <mxPoint x="60" y="-490" as="sourcePoint" />
            <mxPoint x="110" y="-540" as="targetPoint" />
          </mxGeometry>
        </mxCell>
        <mxCell id="uQ_xCeELiff1Q2TgGja5-37" value="" style="endArrow=classic;html=1;rounded=0;exitX=0.25;exitY=1;exitDx=0;exitDy=0;entryX=0.5;entryY=1;entryDx=0;entryDy=0;" edge="1" parent="1" source="uQ_xCeELiff1Q2TgGja5-35" target="uQ_xCeELiff1Q2TgGja5-22">
          <mxGeometry width="50" height="50" relative="1" as="geometry">
            <mxPoint x="340" y="-400" as="sourcePoint" />
            <mxPoint x="260" y="-470" as="targetPoint" />
            <Array as="points">
              <mxPoint x="375" y="-400" />
              <mxPoint x="240" y="-400" />
            </Array>
          </mxGeometry>
        </mxCell>
        <mxCell id="uQ_xCeELiff1Q2TgGja5-38" value="" style="endArrow=classic;html=1;rounded=0;exitX=0.75;exitY=1;exitDx=0;exitDy=0;entryX=0.875;entryY=0.5;entryDx=0;entryDy=0;entryPerimeter=0;" edge="1" parent="1" source="uQ_xCeELiff1Q2TgGja5-35" target="uQ_xCeELiff1Q2TgGja5-17">
          <mxGeometry width="50" height="50" relative="1" as="geometry">
            <mxPoint x="440" y="-410" as="sourcePoint" />
            <mxPoint x="490" y="-460" as="targetPoint" />
            <Array as="points">
              <mxPoint x="415" y="-400" />
              <mxPoint x="540" y="-400" />
              <mxPoint x="540" y="-740" />
            </Array>
          </mxGeometry>
        </mxCell>
        <mxCell id="uQ_xCeELiff1Q2TgGja5-39" value="Master&lt;br&gt;State&lt;br&gt;Lock" style="text;html=1;strokeColor=none;fillColor=none;align=center;verticalAlign=middle;whiteSpace=wrap;rounded=0;" vertex="1" parent="1">
          <mxGeometry x="270" y="-535" width="60" height="30" as="geometry" />
        </mxCell>
        <mxCell id="uQ_xCeELiff1Q2TgGja5-40" value="" style="ellipse;whiteSpace=wrap;html=1;aspect=fixed;" vertex="1" parent="1">
          <mxGeometry x="20" y="-200" width="80" height="80" as="geometry" />
        </mxCell>
        <mxCell id="uQ_xCeELiff1Q2TgGja5-41" value="" style="endArrow=classic;html=1;rounded=0;exitX=0.25;exitY=1;exitDx=0;exitDy=0;" edge="1" parent="1" source="uQ_xCeELiff1Q2TgGja5-32">
          <mxGeometry width="50" height="50" relative="1" as="geometry">
            <mxPoint x="280" y="-350" as="sourcePoint" />
            <mxPoint x="60" y="-360" as="targetPoint" />
          </mxGeometry>
        </mxCell>
        <mxCell id="uQ_xCeELiff1Q2TgGja5-42" value="If ( directory&lt;br&gt;is&lt;br&gt;invalid )" style="text;html=1;strokeColor=none;fillColor=none;align=center;verticalAlign=middle;whiteSpace=wrap;rounded=0;" vertex="1" parent="1">
          <mxGeometry x="100" y="-175" width="60" height="30" as="geometry" />
        </mxCell>
        <mxCell id="uQ_xCeELiff1Q2TgGja5-44" value="" style="endArrow=classic;html=1;rounded=0;exitX=0.5;exitY=1;exitDx=0;exitDy=0;" edge="1" parent="1" source="uQ_xCeELiff1Q2TgGja5-40">
          <mxGeometry width="50" height="50" relative="1" as="geometry">
            <mxPoint x="280" as="sourcePoint" />
            <mxPoint x="-20" y="-80" as="targetPoint" />
          </mxGeometry>
        </mxCell>
        <mxCell id="uQ_xCeELiff1Q2TgGja5-45" value="" style="endArrow=classic;html=1;rounded=0;" edge="1" parent="1">
          <mxGeometry width="50" height="50" relative="1" as="geometry">
            <mxPoint x="60" y="-120" as="sourcePoint" />
            <mxPoint x="140" y="-80" as="targetPoint" />
          </mxGeometry>
        </mxCell>
        <mxCell id="uQ_xCeELiff1Q2TgGja5-46" value="" style="rounded=0;whiteSpace=wrap;html=1;" vertex="1" parent="1">
          <mxGeometry x="-60" y="-80" width="80" height="10" as="geometry" />
        </mxCell>
        <mxCell id="uQ_xCeELiff1Q2TgGja5-47" value="" style="rounded=0;whiteSpace=wrap;html=1;" vertex="1" parent="1">
          <mxGeometry x="100" y="-80" width="80" height="10" as="geometry" />
        </mxCell>
        <mxCell id="uQ_xCeELiff1Q2TgGja5-48" value="False" style="text;html=1;strokeColor=none;fillColor=none;align=center;verticalAlign=middle;whiteSpace=wrap;rounded=0;" vertex="1" parent="1">
          <mxGeometry x="90" y="-120" width="60" height="30" as="geometry" />
        </mxCell>
        <mxCell id="uQ_xCeELiff1Q2TgGja5-49" value="True" style="text;html=1;strokeColor=none;fillColor=none;align=center;verticalAlign=middle;whiteSpace=wrap;rounded=0;" vertex="1" parent="1">
          <mxGeometry x="-30" y="-120" width="60" height="30" as="geometry" />
        </mxCell>
        <mxCell id="uQ_xCeELiff1Q2TgGja5-50" value="" style="ellipse;whiteSpace=wrap;html=1;aspect=fixed;" vertex="1" parent="1">
          <mxGeometry x="100" y="-40" width="80" height="80" as="geometry" />
        </mxCell>
        <mxCell id="uQ_xCeELiff1Q2TgGja5-51" value="" style="endArrow=classic;html=1;rounded=0;exitX=0.5;exitY=1;exitDx=0;exitDy=0;entryX=1;entryY=1;entryDx=0;entryDy=0;" edge="1" parent="1" source="uQ_xCeELiff1Q2TgGja5-46" target="uQ_xCeELiff1Q2TgGja5-53">
          <mxGeometry width="50" height="50" relative="1" as="geometry">
            <mxPoint x="280" y="-270" as="sourcePoint" />
            <mxPoint x="-180" y="-520" as="targetPoint" />
            <Array as="points">
              <mxPoint x="-20" y="-40" />
              <mxPoint x="-170" y="-40" />
              <mxPoint x="-170" y="-1102" />
            </Array>
          </mxGeometry>
        </mxCell>
        <mxCell id="uQ_xCeELiff1Q2TgGja5-52" value="" style="endArrow=classic;html=1;rounded=0;exitX=0.5;exitY=1;exitDx=0;exitDy=0;entryX=0.5;entryY=0;entryDx=0;entryDy=0;" edge="1" parent="1" source="uQ_xCeELiff1Q2TgGja5-47" target="uQ_xCeELiff1Q2TgGja5-50">
          <mxGeometry width="50" height="50" relative="1" as="geometry">
            <mxPoint x="-10" y="-60" as="sourcePoint" />
            <mxPoint x="-10" y="-30" as="targetPoint" />
          </mxGeometry>
        </mxCell>
        <mxCell id="uQ_xCeELiff1Q2TgGja5-53" value="" style="ellipse;whiteSpace=wrap;html=1;aspect=fixed;" vertex="1" parent="1">
          <mxGeometry x="-260" y="-1170" width="80" height="80" as="geometry" />
        </mxCell>
        <mxCell id="uQ_xCeELiff1Q2TgGja5-54" value="SetFinish&lt;br&gt;invokeLater" style="text;html=1;strokeColor=none;fillColor=none;align=center;verticalAlign=middle;whiteSpace=wrap;rounded=0;" vertex="1" parent="1">
          <mxGeometry x="-140" y="-1145" width="60" height="30" as="geometry" />
        </mxCell>
        <mxCell id="uQ_xCeELiff1Q2TgGja5-56" value="If ( directory&lt;br&gt;is&lt;br&gt;empty )" style="text;html=1;strokeColor=none;fillColor=none;align=center;verticalAlign=middle;whiteSpace=wrap;rounded=0;" vertex="1" parent="1">
          <mxGeometry x="180" y="-15" width="60" height="30" as="geometry" />
        </mxCell>
        <mxCell id="uQ_xCeELiff1Q2TgGja5-57" value="" style="endArrow=classic;html=1;rounded=0;exitX=0.5;exitY=1;exitDx=0;exitDy=0;" edge="1" parent="1">
          <mxGeometry width="50" height="50" relative="1" as="geometry">
            <mxPoint x="140" y="40" as="sourcePoint" />
            <mxPoint x="60" y="80" as="targetPoint" />
          </mxGeometry>
        </mxCell>
        <mxCell id="uQ_xCeELiff1Q2TgGja5-58" value="" style="endArrow=classic;html=1;rounded=0;" edge="1" parent="1">
          <mxGeometry width="50" height="50" relative="1" as="geometry">
            <mxPoint x="140" y="40" as="sourcePoint" />
            <mxPoint x="220" y="80" as="targetPoint" />
          </mxGeometry>
        </mxCell>
        <mxCell id="uQ_xCeELiff1Q2TgGja5-59" value="" style="rounded=0;whiteSpace=wrap;html=1;" vertex="1" parent="1">
          <mxGeometry x="20" y="80" width="80" height="10" as="geometry" />
        </mxCell>
        <mxCell id="uQ_xCeELiff1Q2TgGja5-60" value="" style="rounded=0;whiteSpace=wrap;html=1;" vertex="1" parent="1">
          <mxGeometry x="180" y="80" width="80" height="10" as="geometry" />
        </mxCell>
        <mxCell id="uQ_xCeELiff1Q2TgGja5-61" value="False" style="text;html=1;strokeColor=none;fillColor=none;align=center;verticalAlign=middle;whiteSpace=wrap;rounded=0;" vertex="1" parent="1">
          <mxGeometry x="170" y="40" width="60" height="30" as="geometry" />
        </mxCell>
        <mxCell id="uQ_xCeELiff1Q2TgGja5-62" value="True" style="text;html=1;strokeColor=none;fillColor=none;align=center;verticalAlign=middle;whiteSpace=wrap;rounded=0;" vertex="1" parent="1">
          <mxGeometry x="50" y="40" width="60" height="30" as="geometry" />
        </mxCell>
        <mxCell id="uQ_xCeELiff1Q2TgGja5-63" value="" style="endArrow=classic;html=1;rounded=0;exitX=0.5;exitY=1;exitDx=0;exitDy=0;entryX=0.5;entryY=1;entryDx=0;entryDy=0;" edge="1" parent="1" source="uQ_xCeELiff1Q2TgGja5-59" target="uQ_xCeELiff1Q2TgGja5-53">
          <mxGeometry width="50" height="50" relative="1" as="geometry">
            <mxPoint x="-210" y="-200" as="sourcePoint" />
            <mxPoint x="-160" y="-250" as="targetPoint" />
            <Array as="points">
              <mxPoint x="60" y="120" />
              <mxPoint x="-220" y="120" />
            </Array>
          </mxGeometry>
        </mxCell>
        <mxCell id="uQ_xCeELiff1Q2TgGja5-64" value="" style="rounded=1;whiteSpace=wrap;html=1;" vertex="1" parent="1">
          <mxGeometry x="-260" y="-1220" width="80" height="10" as="geometry" />
        </mxCell>
        <mxCell id="uQ_xCeELiff1Q2TgGja5-65" value="" style="endArrow=classic;html=1;rounded=0;exitX=0.5;exitY=0;exitDx=0;exitDy=0;entryX=0.5;entryY=1;entryDx=0;entryDy=0;" edge="1" parent="1" source="uQ_xCeELiff1Q2TgGja5-53" target="uQ_xCeELiff1Q2TgGja5-64">
          <mxGeometry width="50" height="50" relative="1" as="geometry">
            <mxPoint x="-190" y="-1320" as="sourcePoint" />
            <mxPoint x="-140" y="-1370" as="targetPoint" />
          </mxGeometry>
        </mxCell>
        <mxCell id="uQ_xCeELiff1Q2TgGja5-67" value="" style="ellipse;whiteSpace=wrap;html=1;aspect=fixed;" vertex="1" parent="1">
          <mxGeometry x="180" y="120" width="80" height="80" as="geometry" />
        </mxCell>
        <mxCell id="uQ_xCeELiff1Q2TgGja5-68" value="" style="endArrow=classic;html=1;rounded=0;exitX=0.5;exitY=1;exitDx=0;exitDy=0;entryX=0.5;entryY=0;entryDx=0;entryDy=0;" edge="1" parent="1" source="uQ_xCeELiff1Q2TgGja5-60" target="uQ_xCeELiff1Q2TgGja5-67">
          <mxGeometry width="50" height="50" relative="1" as="geometry">
            <mxPoint x="180" y="210" as="sourcePoint" />
            <mxPoint x="230" y="160" as="targetPoint" />
          </mxGeometry>
        </mxCell>
        <mxCell id="uQ_xCeELiff1Q2TgGja5-69" value="SetProcessing&lt;br&gt;invokeLater" style="text;html=1;strokeColor=none;fillColor=none;align=center;verticalAlign=middle;whiteSpace=wrap;rounded=0;" vertex="1" parent="1">
          <mxGeometry x="270" y="145" width="60" height="30" as="geometry" />
        </mxCell>
        <mxCell id="uQ_xCeELiff1Q2TgGja5-71" value="" style="rounded=0;whiteSpace=wrap;html=1;" vertex="1" parent="1">
          <mxGeometry x="180" y="80" width="80" height="10" as="geometry" />
        </mxCell>
        <mxCell id="uQ_xCeELiff1Q2TgGja5-74" value="" style="rounded=0;whiteSpace=wrap;html=1;" vertex="1" parent="1">
          <mxGeometry x="200" y="280" width="80" height="10" as="geometry" />
        </mxCell>
        <mxCell id="uQ_xCeELiff1Q2TgGja5-75" value="" style="endArrow=classic;html=1;rounded=0;entryX=0.25;entryY=0;entryDx=0;entryDy=0;exitX=0.5;exitY=1;exitDx=0;exitDy=0;" edge="1" parent="1" target="uQ_xCeELiff1Q2TgGja5-74">
          <mxGeometry width="50" height="50" relative="1" as="geometry">
            <mxPoint x="220" y="200" as="sourcePoint" />
            <mxPoint x="470" y="180" as="targetPoint" />
          </mxGeometry>
        </mxCell>
        <mxCell id="uQ_xCeELiff1Q2TgGja5-76" value="Put&lt;br&gt;diretcory&lt;br&gt;path" style="text;html=1;strokeColor=none;fillColor=none;align=center;verticalAlign=middle;whiteSpace=wrap;rounded=0;" vertex="1" parent="1">
          <mxGeometry x="280" y="345" width="60" height="30" as="geometry" />
        </mxCell>
        <mxCell id="uQ_xCeELiff1Q2TgGja5-77" value="" style="ellipse;shape=cloud;whiteSpace=wrap;html=1;" vertex="1" parent="1">
          <mxGeometry x="485" y="80" width="170" height="120" as="geometry" />
        </mxCell>
        <mxCell id="uQ_xCeELiff1Q2TgGja5-78" value="Slaves&lt;br&gt;Thread" style="text;html=1;strokeColor=none;fillColor=none;align=center;verticalAlign=middle;whiteSpace=wrap;rounded=0;" vertex="1" parent="1">
          <mxGeometry x="545" y="125" width="60" height="30" as="geometry" />
        </mxCell>
        <mxCell id="uQ_xCeELiff1Q2TgGja5-79" value="" style="ellipse;whiteSpace=wrap;html=1;aspect=fixed;" vertex="1" parent="1">
          <mxGeometry x="200" y="320" width="80" height="80" as="geometry" />
        </mxCell>
        <mxCell id="uQ_xCeELiff1Q2TgGja5-80" value="" style="endArrow=classic;html=1;rounded=0;exitX=0.5;exitY=1;exitDx=0;exitDy=0;" edge="1" parent="1" source="uQ_xCeELiff1Q2TgGja5-74" target="uQ_xCeELiff1Q2TgGja5-79">
          <mxGeometry width="50" height="50" relative="1" as="geometry">
            <mxPoint x="290" y="320" as="sourcePoint" />
            <mxPoint x="340" y="270" as="targetPoint" />
          </mxGeometry>
        </mxCell>
        <mxCell id="uQ_xCeELiff1Q2TgGja5-81" value="" style="ellipse;whiteSpace=wrap;html=1;aspect=fixed;" vertex="1" parent="1">
          <mxGeometry x="360" y="320" width="80" height="80" as="geometry" />
        </mxCell>
        <mxCell id="uQ_xCeELiff1Q2TgGja5-82" value="" style="endArrow=classic;html=1;rounded=0;exitX=0.5;exitY=0;exitDx=0;exitDy=0;entryX=0.75;entryY=0;entryDx=0;entryDy=0;" edge="1" parent="1" source="uQ_xCeELiff1Q2TgGja5-81" target="uQ_xCeELiff1Q2TgGja5-74">
          <mxGeometry width="50" height="50" relative="1" as="geometry">
            <mxPoint x="290" y="320" as="sourcePoint" />
            <mxPoint x="380" y="240" as="targetPoint" />
            <Array as="points">
              <mxPoint x="400" y="240" />
              <mxPoint x="260" y="240" />
            </Array>
          </mxGeometry>
        </mxCell>
        <mxCell id="uQ_xCeELiff1Q2TgGja5-83" value="" style="ellipse;whiteSpace=wrap;html=1;aspect=fixed;fillColor=#000000;" vertex="1" parent="1">
          <mxGeometry x="390" y="350" width="20" height="20" as="geometry" />
        </mxCell>
        <mxCell id="uQ_xCeELiff1Q2TgGja5-84" value="" style="edgeStyle=orthogonalEdgeStyle;rounded=0;orthogonalLoop=1;jettySize=auto;html=1;" edge="1" parent="1" source="uQ_xCeELiff1Q2TgGja5-85">
          <mxGeometry relative="1" as="geometry">
            <mxPoint x="555" y="370.0000000000002" as="targetPoint" />
          </mxGeometry>
        </mxCell>
        <mxCell id="uQ_xCeELiff1Q2TgGja5-85" value="" style="rounded=0;whiteSpace=wrap;html=1;" vertex="1" parent="1">
          <mxGeometry x="515" y="280" width="80" height="10" as="geometry" />
        </mxCell>
        <mxCell id="uQ_xCeELiff1Q2TgGja5-86" value="" style="ellipse;whiteSpace=wrap;html=1;aspect=fixed;" vertex="1" parent="1">
          <mxGeometry x="515" y="320" width="80" height="80" as="geometry" />
        </mxCell>
        <mxCell id="uQ_xCeELiff1Q2TgGja5-87" value="" style="endArrow=classic;html=1;rounded=0;exitX=0.5;exitY=1;exitDx=0;exitDy=0;" edge="1" parent="1" source="uQ_xCeELiff1Q2TgGja5-85" target="uQ_xCeELiff1Q2TgGja5-86">
          <mxGeometry width="50" height="50" relative="1" as="geometry">
            <mxPoint x="610" y="320" as="sourcePoint" />
            <mxPoint x="660" y="270" as="targetPoint" />
          </mxGeometry>
        </mxCell>
        <mxCell id="uQ_xCeELiff1Q2TgGja5-88" value="" style="endArrow=classic;html=1;rounded=0;entryX=0.25;entryY=0;entryDx=0;entryDy=0;" edge="1" parent="1" target="uQ_xCeELiff1Q2TgGja5-85">
          <mxGeometry width="50" height="50" relative="1" as="geometry">
            <mxPoint x="400" y="320" as="sourcePoint" />
            <mxPoint x="520" y="240" as="targetPoint" />
            <Array as="points">
              <mxPoint x="400" y="240" />
              <mxPoint x="535" y="240" />
            </Array>
          </mxGeometry>
        </mxCell>
        <mxCell id="uQ_xCeELiff1Q2TgGja5-89" value="" style="endArrow=classic;html=1;rounded=0;entryX=0.796;entryY=-0.106;entryDx=0;entryDy=0;entryPerimeter=0;exitX=0.55;exitY=0.95;exitDx=0;exitDy=0;exitPerimeter=0;" edge="1" parent="1" source="uQ_xCeELiff1Q2TgGja5-77" target="uQ_xCeELiff1Q2TgGja5-85">
          <mxGeometry width="50" height="50" relative="1" as="geometry">
            <mxPoint x="470" y="290" as="sourcePoint" />
            <mxPoint x="520" y="240" as="targetPoint" />
          </mxGeometry>
        </mxCell>
        <mxCell id="uQ_xCeELiff1Q2TgGja5-90" value="Get&lt;br&gt;path" style="text;html=1;strokeColor=none;fillColor=none;align=center;verticalAlign=middle;whiteSpace=wrap;rounded=0;" vertex="1" parent="1">
          <mxGeometry x="595" y="345" width="60" height="30" as="geometry" />
        </mxCell>
        <mxCell id="uQ_xCeELiff1Q2TgGja5-91" value="" style="rounded=0;whiteSpace=wrap;html=1;" vertex="1" parent="1">
          <mxGeometry x="200" y="440" width="80" height="10" as="geometry" />
        </mxCell>
        <mxCell id="uQ_xCeELiff1Q2TgGja5-92" value="" style="endArrow=classic;html=1;rounded=0;exitX=0.5;exitY=1;exitDx=0;exitDy=0;entryX=0.5;entryY=0;entryDx=0;entryDy=0;" edge="1" parent="1" source="uQ_xCeELiff1Q2TgGja5-79" target="uQ_xCeELiff1Q2TgGja5-91">
          <mxGeometry width="50" height="50" relative="1" as="geometry">
            <mxPoint x="420" y="440" as="sourcePoint" />
            <mxPoint x="470" y="390" as="targetPoint" />
          </mxGeometry>
        </mxCell>
        <mxCell id="uQ_xCeELiff1Q2TgGja5-93" value="" style="endArrow=classic;html=1;rounded=0;exitX=0.75;exitY=1;exitDx=0;exitDy=0;" edge="1" parent="1" source="uQ_xCeELiff1Q2TgGja5-91">
          <mxGeometry width="50" height="50" relative="1" as="geometry">
            <mxPoint x="240" y="460" as="sourcePoint" />
            <mxPoint x="400" y="400" as="targetPoint" />
            <Array as="points">
              <mxPoint x="260" y="480" />
              <mxPoint x="400" y="480" />
            </Array>
          </mxGeometry>
        </mxCell>
        <mxCell id="uQ_xCeELiff1Q2TgGja5-94" value="" style="rounded=0;whiteSpace=wrap;html=1;" vertex="1" parent="1">
          <mxGeometry x="515" y="440" width="80" height="10" as="geometry" />
        </mxCell>
        <mxCell id="uQ_xCeELiff1Q2TgGja5-95" value="" style="endArrow=classic;html=1;rounded=0;exitX=0.5;exitY=1;exitDx=0;exitDy=0;entryX=0.5;entryY=0;entryDx=0;entryDy=0;" edge="1" parent="1" source="uQ_xCeELiff1Q2TgGja5-86" target="uQ_xCeELiff1Q2TgGja5-94">
          <mxGeometry width="50" height="50" relative="1" as="geometry">
            <mxPoint x="220" y="390" as="sourcePoint" />
            <mxPoint x="270" y="340" as="targetPoint" />
          </mxGeometry>
        </mxCell>
        <mxCell id="uQ_xCeELiff1Q2TgGja5-96" value="" style="endArrow=classic;html=1;rounded=0;exitX=0.25;exitY=1;exitDx=0;exitDy=0;entryX=0.5;entryY=1;entryDx=0;entryDy=0;" edge="1" parent="1" source="uQ_xCeELiff1Q2TgGja5-94" target="uQ_xCeELiff1Q2TgGja5-81">
          <mxGeometry width="50" height="50" relative="1" as="geometry">
            <mxPoint x="500" y="480" as="sourcePoint" />
            <mxPoint x="420" y="410" as="targetPoint" />
            <Array as="points">
              <mxPoint x="535" y="480" />
              <mxPoint x="400" y="480" />
            </Array>
          </mxGeometry>
        </mxCell>
        <mxCell id="uQ_xCeELiff1Q2TgGja5-97" value="" style="endArrow=classic;html=1;rounded=0;exitX=0.75;exitY=1;exitDx=0;exitDy=0;entryX=0.875;entryY=0.5;entryDx=0;entryDy=0;entryPerimeter=0;" edge="1" parent="1" source="uQ_xCeELiff1Q2TgGja5-94" target="uQ_xCeELiff1Q2TgGja5-77">
          <mxGeometry width="50" height="50" relative="1" as="geometry">
            <mxPoint x="600" y="470" as="sourcePoint" />
            <mxPoint x="650" y="420" as="targetPoint" />
            <Array as="points">
              <mxPoint x="575" y="480" />
              <mxPoint x="700" y="480" />
              <mxPoint x="700" y="140" />
            </Array>
          </mxGeometry>
        </mxCell>
        <mxCell id="uQ_xCeELiff1Q2TgGja5-98" value="PathList&lt;br&gt;Lock" style="text;html=1;strokeColor=none;fillColor=none;align=center;verticalAlign=middle;whiteSpace=wrap;rounded=0;" vertex="1" parent="1">
          <mxGeometry x="440" y="345" width="60" height="30" as="geometry" />
        </mxCell>
        <mxCell id="uQ_xCeELiff1Q2TgGja5-103" style="edgeStyle=orthogonalEdgeStyle;rounded=0;orthogonalLoop=1;jettySize=auto;html=1;entryX=0.5;entryY=0;entryDx=0;entryDy=0;" edge="1" parent="1" source="uQ_xCeELiff1Q2TgGja5-100" target="uQ_xCeELiff1Q2TgGja5-102">
          <mxGeometry relative="1" as="geometry" />
        </mxCell>
        <mxCell id="uQ_xCeELiff1Q2TgGja5-100" value="" style="ellipse;whiteSpace=wrap;html=1;aspect=fixed;" vertex="1" parent="1">
          <mxGeometry x="20" y="-360" width="80" height="80" as="geometry" />
        </mxCell>
        <mxCell id="uQ_xCeELiff1Q2TgGja5-104" style="edgeStyle=orthogonalEdgeStyle;rounded=0;orthogonalLoop=1;jettySize=auto;html=1;entryX=0.5;entryY=0;entryDx=0;entryDy=0;" edge="1" parent="1" source="uQ_xCeELiff1Q2TgGja5-102" target="uQ_xCeELiff1Q2TgGja5-40">
          <mxGeometry relative="1" as="geometry" />
        </mxCell>
        <mxCell id="uQ_xCeELiff1Q2TgGja5-102" value="" style="rounded=0;whiteSpace=wrap;html=1;" vertex="1" parent="1">
          <mxGeometry x="20" y="-240" width="80" height="10" as="geometry" />
        </mxCell>
        <mxCell id="uQ_xCeELiff1Q2TgGja5-105" value="Get&lt;br&gt;directory&#39;s&lt;br&gt;path" style="text;html=1;strokeColor=none;fillColor=none;align=center;verticalAlign=middle;whiteSpace=wrap;rounded=0;" vertex="1" parent="1">
          <mxGeometry x="102" y="-335" width="60" height="30" as="geometry" />
        </mxCell>
        <mxCell id="uQ_xCeELiff1Q2TgGja5-106" value="" style="endArrow=classic;html=1;rounded=0;exitX=0.25;exitY=1;exitDx=0;exitDy=0;" edge="1" parent="1" source="uQ_xCeELiff1Q2TgGja5-91">
          <mxGeometry width="50" height="50" relative="1" as="geometry">
            <mxPoint x="180" y="610" as="sourcePoint" />
            <mxPoint x="220" y="520" as="targetPoint" />
          </mxGeometry>
        </mxCell>
        <mxCell id="uQ_xCeELiff1Q2TgGja5-132" value="" style="ellipse;whiteSpace=wrap;html=1;aspect=fixed;" vertex="1" parent="1">
          <mxGeometry x="180" y="520" width="80" height="80" as="geometry" />
        </mxCell>
        <mxCell id="uQ_xCeELiff1Q2TgGja5-134" value="" style="ellipse;whiteSpace=wrap;html=1;aspect=fixed;" vertex="1" parent="1">
          <mxGeometry y="720" width="80" height="80" as="geometry" />
        </mxCell>
        <mxCell id="uQ_xCeELiff1Q2TgGja5-150" style="edgeStyle=orthogonalEdgeStyle;rounded=0;orthogonalLoop=1;jettySize=auto;html=1;entryX=0.5;entryY=0;entryDx=0;entryDy=0;" edge="1" parent="1" source="uQ_xCeELiff1Q2TgGja5-135" target="uQ_xCeELiff1Q2TgGja5-148">
          <mxGeometry relative="1" as="geometry" />
        </mxCell>
        <mxCell id="uQ_xCeELiff1Q2TgGja5-135" value="" style="ellipse;whiteSpace=wrap;html=1;aspect=fixed;" vertex="1" parent="1">
          <mxGeometry x="-160" y="720" width="80" height="80" as="geometry" />
        </mxCell>
        <mxCell id="uQ_xCeELiff1Q2TgGja5-151" style="edgeStyle=orthogonalEdgeStyle;rounded=0;orthogonalLoop=1;jettySize=auto;html=1;entryX=0.5;entryY=0;entryDx=0;entryDy=0;" edge="1" parent="1" source="uQ_xCeELiff1Q2TgGja5-136" target="uQ_xCeELiff1Q2TgGja5-149">
          <mxGeometry relative="1" as="geometry" />
        </mxCell>
        <mxCell id="uQ_xCeELiff1Q2TgGja5-136" value="" style="ellipse;whiteSpace=wrap;html=1;aspect=fixed;" vertex="1" parent="1">
          <mxGeometry x="160" y="720" width="80" height="80" as="geometry" />
        </mxCell>
        <mxCell id="uQ_xCeELiff1Q2TgGja5-137" value="" style="endArrow=classic;html=1;rounded=0;exitX=0.5;exitY=1;exitDx=0;exitDy=0;entryX=0.75;entryY=0;entryDx=0;entryDy=0;" edge="1" parent="1" source="uQ_xCeELiff1Q2TgGja5-132" target="uQ_xCeELiff1Q2TgGja5-138">
          <mxGeometry width="50" height="50" relative="1" as="geometry">
            <mxPoint x="180" y="740" as="sourcePoint" />
            <mxPoint x="220" y="640" as="targetPoint" />
          </mxGeometry>
        </mxCell>
        <mxCell id="uQ_xCeELiff1Q2TgGja5-138" value="" style="rounded=0;whiteSpace=wrap;html=1;" vertex="1" parent="1">
          <mxGeometry x="160" y="680" width="80" height="10" as="geometry" />
        </mxCell>
        <mxCell id="uQ_xCeELiff1Q2TgGja5-139" value="" style="endArrow=classic;html=1;rounded=0;exitX=0.5;exitY=1;exitDx=0;exitDy=0;entryX=0.5;entryY=0;entryDx=0;entryDy=0;" edge="1" parent="1" source="uQ_xCeELiff1Q2TgGja5-138" target="uQ_xCeELiff1Q2TgGja5-136">
          <mxGeometry width="50" height="50" relative="1" as="geometry">
            <mxPoint x="160" y="780" as="sourcePoint" />
            <mxPoint x="210" y="730" as="targetPoint" />
          </mxGeometry>
        </mxCell>
        <mxCell id="uQ_xCeELiff1Q2TgGja5-140" value="" style="ellipse;whiteSpace=wrap;html=1;aspect=fixed;fillColor=#000000;" vertex="1" parent="1">
          <mxGeometry x="30" y="750" width="20" height="20" as="geometry" />
        </mxCell>
        <mxCell id="uQ_xCeELiff1Q2TgGja5-141" value="" style="endArrow=classic;html=1;rounded=0;exitX=0.5;exitY=0;exitDx=0;exitDy=0;entryX=0.25;entryY=0;entryDx=0;entryDy=0;" edge="1" parent="1" source="uQ_xCeELiff1Q2TgGja5-134" target="uQ_xCeELiff1Q2TgGja5-138">
          <mxGeometry width="50" height="50" relative="1" as="geometry">
            <mxPoint x="180" y="740" as="sourcePoint" />
            <mxPoint x="230" y="690" as="targetPoint" />
            <Array as="points">
              <mxPoint x="40" y="640" />
              <mxPoint x="180" y="640" />
            </Array>
          </mxGeometry>
        </mxCell>
        <mxCell id="uQ_xCeELiff1Q2TgGja5-142" value="" style="endArrow=classic;html=1;rounded=0;exitX=0.5;exitY=0;exitDx=0;exitDy=0;entryX=0.75;entryY=0;entryDx=0;entryDy=0;" edge="1" parent="1" source="uQ_xCeELiff1Q2TgGja5-134" target="uQ_xCeELiff1Q2TgGja5-143">
          <mxGeometry width="50" height="50" relative="1" as="geometry">
            <mxPoint x="150" y="750" as="sourcePoint" />
            <mxPoint x="-120" y="670" as="targetPoint" />
            <Array as="points">
              <mxPoint x="40" y="640" />
              <mxPoint x="-100" y="640" />
            </Array>
          </mxGeometry>
        </mxCell>
        <mxCell id="uQ_xCeELiff1Q2TgGja5-146" style="edgeStyle=orthogonalEdgeStyle;rounded=0;orthogonalLoop=1;jettySize=auto;html=1;" edge="1" parent="1" source="uQ_xCeELiff1Q2TgGja5-143" target="uQ_xCeELiff1Q2TgGja5-135">
          <mxGeometry relative="1" as="geometry" />
        </mxCell>
        <mxCell id="uQ_xCeELiff1Q2TgGja5-143" value="" style="rounded=0;whiteSpace=wrap;html=1;" vertex="1" parent="1">
          <mxGeometry x="-160" y="680" width="80" height="10" as="geometry" />
        </mxCell>
        <mxCell id="uQ_xCeELiff1Q2TgGja5-145" style="edgeStyle=orthogonalEdgeStyle;rounded=0;orthogonalLoop=1;jettySize=auto;html=1;entryX=0.25;entryY=0;entryDx=0;entryDy=0;" edge="1" parent="1" target="uQ_xCeELiff1Q2TgGja5-143">
          <mxGeometry relative="1" as="geometry">
            <mxPoint x="-140" y="600" as="sourcePoint" />
          </mxGeometry>
        </mxCell>
        <mxCell id="uQ_xCeELiff1Q2TgGja5-148" value="" style="rounded=0;whiteSpace=wrap;html=1;" vertex="1" parent="1">
          <mxGeometry x="-160" y="840" width="80" height="10" as="geometry" />
        </mxCell>
        <mxCell id="uQ_xCeELiff1Q2TgGja5-149" value="" style="rounded=0;whiteSpace=wrap;html=1;" vertex="1" parent="1">
          <mxGeometry x="160" y="840" width="80" height="10" as="geometry" />
        </mxCell>
        <mxCell id="uQ_xCeELiff1Q2TgGja5-152" value="" style="endArrow=classic;html=1;rounded=0;exitX=0.75;exitY=1;exitDx=0;exitDy=0;entryX=0.5;entryY=1;entryDx=0;entryDy=0;" edge="1" parent="1" source="uQ_xCeELiff1Q2TgGja5-148" target="uQ_xCeELiff1Q2TgGja5-134">
          <mxGeometry width="50" height="50" relative="1" as="geometry">
            <mxPoint x="-20" y="850" as="sourcePoint" />
            <mxPoint x="30" y="800" as="targetPoint" />
            <Array as="points">
              <mxPoint x="-100" y="880" />
              <mxPoint x="40" y="880" />
            </Array>
          </mxGeometry>
        </mxCell>
        <mxCell id="uQ_xCeELiff1Q2TgGja5-153" value="" style="endArrow=classic;html=1;rounded=0;exitX=0.25;exitY=1;exitDx=0;exitDy=0;entryX=0.5;entryY=1;entryDx=0;entryDy=0;" edge="1" parent="1" source="uQ_xCeELiff1Q2TgGja5-149" target="uQ_xCeELiff1Q2TgGja5-134">
          <mxGeometry width="50" height="50" relative="1" as="geometry">
            <mxPoint x="-20" y="850" as="sourcePoint" />
            <mxPoint x="30" y="800" as="targetPoint" />
            <Array as="points">
              <mxPoint x="180" y="880" />
              <mxPoint x="40" y="880" />
            </Array>
          </mxGeometry>
        </mxCell>
        <mxCell id="uQ_xCeELiff1Q2TgGja5-154" value="" style="endArrow=classic;html=1;rounded=0;exitX=0.25;exitY=1;exitDx=0;exitDy=0;entryX=0.16;entryY=0.55;entryDx=0;entryDy=0;entryPerimeter=0;" edge="1" parent="1" source="uQ_xCeELiff1Q2TgGja5-148" target="uQ_xCeELiff1Q2TgGja5-155">
          <mxGeometry width="50" height="50" relative="1" as="geometry">
            <mxPoint x="-20" y="850" as="sourcePoint" />
            <mxPoint x="-191" y="555" as="targetPoint" />
            <Array as="points">
              <mxPoint x="-140" y="880" />
              <mxPoint x="-240" y="880" />
              <mxPoint x="-240" y="546" />
            </Array>
          </mxGeometry>
        </mxCell>
        <mxCell id="uQ_xCeELiff1Q2TgGja5-155" value="" style="ellipse;shape=cloud;whiteSpace=wrap;html=1;" vertex="1" parent="1">
          <mxGeometry x="-230" y="480" width="170" height="120" as="geometry" />
        </mxCell>
        <mxCell id="uQ_xCeELiff1Q2TgGja5-156" value="Slaved or event dispatch&lt;br&gt;threads" style="text;html=1;strokeColor=none;fillColor=none;align=center;verticalAlign=middle;whiteSpace=wrap;rounded=0;" vertex="1" parent="1">
          <mxGeometry x="-170" y="525" width="60" height="30" as="geometry" />
        </mxCell>
        <mxCell id="uQ_xCeELiff1Q2TgGja5-157" value="Change&lt;br&gt;State" style="text;html=1;strokeColor=none;fillColor=none;align=center;verticalAlign=middle;whiteSpace=wrap;rounded=0;" vertex="1" parent="1">
          <mxGeometry x="-220" y="745" width="60" height="30" as="geometry" />
        </mxCell>
        <mxCell id="uQ_xCeELiff1Q2TgGja5-158" value="Master&lt;br&gt;State&lt;br&gt;Lock" style="text;html=1;strokeColor=none;fillColor=none;align=center;verticalAlign=middle;whiteSpace=wrap;rounded=0;" vertex="1" parent="1">
          <mxGeometry x="-60" y="750" width="60" height="30" as="geometry" />
        </mxCell>
        <mxCell id="uQ_xCeELiff1Q2TgGja5-159" value="Read state" style="text;html=1;strokeColor=none;fillColor=none;align=center;verticalAlign=middle;whiteSpace=wrap;rounded=0;" vertex="1" parent="1">
          <mxGeometry x="108" y="745" width="60" height="30" as="geometry" />
        </mxCell>
        <mxCell id="uQ_xCeELiff1Q2TgGja5-160" value="" style="endArrow=classic;html=1;rounded=0;exitX=0.75;exitY=1;exitDx=0;exitDy=0;" edge="1" parent="1" source="uQ_xCeELiff1Q2TgGja5-149">
          <mxGeometry width="50" height="50" relative="1" as="geometry">
            <mxPoint x="240" y="870" as="sourcePoint" />
            <mxPoint x="220" y="920" as="targetPoint" />
          </mxGeometry>
        </mxCell>
        <mxCell id="uQ_xCeELiff1Q2TgGja5-161" value="" style="ellipse;whiteSpace=wrap;html=1;aspect=fixed;" vertex="1" parent="1">
          <mxGeometry x="180" y="920" width="80" height="80" as="geometry" />
        </mxCell>
        <mxCell id="uQ_xCeELiff1Q2TgGja5-163" value="If ( state&amp;nbsp;&lt;br&gt;==&amp;nbsp;&lt;br&gt;continue )" style="text;html=1;strokeColor=none;fillColor=none;align=center;verticalAlign=middle;whiteSpace=wrap;rounded=0;" vertex="1" parent="1">
          <mxGeometry x="260" y="945" width="60" height="30" as="geometry" />
        </mxCell>
        <mxCell id="uQ_xCeELiff1Q2TgGja5-164" value="" style="endArrow=classic;html=1;rounded=0;exitX=0.5;exitY=1;exitDx=0;exitDy=0;" edge="1" parent="1">
          <mxGeometry width="50" height="50" relative="1" as="geometry">
            <mxPoint x="220" y="1000" as="sourcePoint" />
            <mxPoint x="140" y="1040" as="targetPoint" />
          </mxGeometry>
        </mxCell>
        <mxCell id="uQ_xCeELiff1Q2TgGja5-165" value="" style="endArrow=classic;html=1;rounded=0;" edge="1" parent="1">
          <mxGeometry width="50" height="50" relative="1" as="geometry">
            <mxPoint x="220" y="1000" as="sourcePoint" />
            <mxPoint x="300" y="1040" as="targetPoint" />
          </mxGeometry>
        </mxCell>
        <mxCell id="uQ_xCeELiff1Q2TgGja5-166" value="" style="rounded=0;whiteSpace=wrap;html=1;" vertex="1" parent="1">
          <mxGeometry x="100" y="1040" width="80" height="10" as="geometry" />
        </mxCell>
        <mxCell id="uQ_xCeELiff1Q2TgGja5-167" value="" style="rounded=0;whiteSpace=wrap;html=1;" vertex="1" parent="1">
          <mxGeometry x="260" y="1040" width="80" height="10" as="geometry" />
        </mxCell>
        <mxCell id="uQ_xCeELiff1Q2TgGja5-168" value="False" style="text;html=1;strokeColor=none;fillColor=none;align=center;verticalAlign=middle;whiteSpace=wrap;rounded=0;" vertex="1" parent="1">
          <mxGeometry x="250" y="1000" width="60" height="30" as="geometry" />
        </mxCell>
        <mxCell id="uQ_xCeELiff1Q2TgGja5-169" value="True" style="text;html=1;strokeColor=none;fillColor=none;align=center;verticalAlign=middle;whiteSpace=wrap;rounded=0;" vertex="1" parent="1">
          <mxGeometry x="130" y="1000" width="60" height="30" as="geometry" />
        </mxCell>
        <mxCell id="uQ_xCeELiff1Q2TgGja5-170" value="" style="endArrow=classic;html=1;rounded=0;exitX=0.5;exitY=1;exitDx=0;exitDy=0;entryX=0.25;entryY=0;entryDx=0;entryDy=0;" edge="1" parent="1" source="uQ_xCeELiff1Q2TgGja5-167" target="uQ_xCeELiff1Q2TgGja5-184">
          <mxGeometry width="50" height="50" relative="1" as="geometry">
            <mxPoint x="260" y="1170" as="sourcePoint" />
            <mxPoint x="300" y="1080" as="targetPoint" />
          </mxGeometry>
        </mxCell>
        <mxCell id="uQ_xCeELiff1Q2TgGja5-171" value="" style="rounded=0;whiteSpace=wrap;html=1;" vertex="1" parent="1">
          <mxGeometry x="260" y="1040" width="80" height="10" as="geometry" />
        </mxCell>
        <mxCell id="uQ_xCeELiff1Q2TgGja5-172" value="" style="ellipse;whiteSpace=wrap;html=1;aspect=fixed;" vertex="1" parent="1">
          <mxGeometry x="100" y="1080" width="80" height="80" as="geometry" />
        </mxCell>
        <mxCell id="uQ_xCeELiff1Q2TgGja5-173" value="" style="endArrow=classic;html=1;rounded=0;exitX=0.5;exitY=1;exitDx=0;exitDy=0;entryX=0.5;entryY=0;entryDx=0;entryDy=0;" edge="1" parent="1" source="uQ_xCeELiff1Q2TgGja5-166" target="uQ_xCeELiff1Q2TgGja5-172">
          <mxGeometry width="50" height="50" relative="1" as="geometry">
            <mxPoint x="90" y="1070" as="sourcePoint" />
            <mxPoint x="140" y="1020" as="targetPoint" />
          </mxGeometry>
        </mxCell>
        <mxCell id="uQ_xCeELiff1Q2TgGja5-174" value="DisableStop&lt;br&gt;invokeLater" style="text;html=1;strokeColor=none;fillColor=none;align=center;verticalAlign=middle;whiteSpace=wrap;rounded=0;" vertex="1" parent="1">
          <mxGeometry x="190" y="1105" width="60" height="30" as="geometry" />
        </mxCell>
        <mxCell id="uQ_xCeELiff1Q2TgGja5-175" value="" style="rounded=0;whiteSpace=wrap;html=1;" vertex="1" parent="1">
          <mxGeometry x="100" y="1200" width="80" height="10" as="geometry" />
        </mxCell>
        <mxCell id="uQ_xCeELiff1Q2TgGja5-176" value="" style="endArrow=classic;html=1;rounded=0;exitX=0.5;exitY=1;exitDx=0;exitDy=0;entryX=0.5;entryY=0;entryDx=0;entryDy=0;" edge="1" parent="1" source="uQ_xCeELiff1Q2TgGja5-172" target="uQ_xCeELiff1Q2TgGja5-175">
          <mxGeometry width="50" height="50" relative="1" as="geometry">
            <mxPoint x="280" y="1200" as="sourcePoint" />
            <mxPoint x="330" y="1150" as="targetPoint" />
          </mxGeometry>
        </mxCell>
        <mxCell id="uQ_xCeELiff1Q2TgGja5-177" value="" style="endArrow=classic;html=1;rounded=0;exitX=0.5;exitY=1;exitDx=0;exitDy=0;" edge="1" parent="1" source="uQ_xCeELiff1Q2TgGja5-175">
          <mxGeometry width="50" height="50" relative="1" as="geometry">
            <mxPoint x="280" y="1200" as="sourcePoint" />
            <mxPoint x="-250" y="-1100" as="targetPoint" />
            <Array as="points">
              <mxPoint x="140" y="1240" />
              <mxPoint x="-270" y="1240" />
              <mxPoint x="-270" y="-1100" />
            </Array>
          </mxGeometry>
        </mxCell>
        <mxCell id="uQ_xCeELiff1Q2TgGja5-183" value="SetProcessing&lt;br&gt;invokeLater" style="text;html=1;strokeColor=none;fillColor=none;align=center;verticalAlign=middle;whiteSpace=wrap;rounded=0;" vertex="1" parent="1">
          <mxGeometry x="350" y="945" width="60" height="30" as="geometry" />
        </mxCell>
        <mxCell id="uQ_xCeELiff1Q2TgGja5-184" value="" style="rounded=0;whiteSpace=wrap;html=1;" vertex="1" parent="1">
          <mxGeometry x="280" y="1118" width="80" height="10" as="geometry" />
        </mxCell>
        <mxCell id="uQ_xCeELiff1Q2TgGja5-186" value="reset" style="text;html=1;strokeColor=none;fillColor=none;align=center;verticalAlign=middle;whiteSpace=wrap;rounded=0;" vertex="1" parent="1">
          <mxGeometry x="354" y="1183" width="60" height="30" as="geometry" />
        </mxCell>
        <mxCell id="uQ_xCeELiff1Q2TgGja5-188" value="" style="ellipse;whiteSpace=wrap;html=1;aspect=fixed;" vertex="1" parent="1">
          <mxGeometry x="280" y="1158" width="80" height="80" as="geometry" />
        </mxCell>
        <mxCell id="uQ_xCeELiff1Q2TgGja5-189" value="" style="endArrow=classic;html=1;rounded=0;exitX=0.5;exitY=1;exitDx=0;exitDy=0;" edge="1" parent="1" source="uQ_xCeELiff1Q2TgGja5-184" target="uQ_xCeELiff1Q2TgGja5-188">
          <mxGeometry width="50" height="50" relative="1" as="geometry">
            <mxPoint x="370" y="1158" as="sourcePoint" />
            <mxPoint x="420" y="1108" as="targetPoint" />
          </mxGeometry>
        </mxCell>
        <mxCell id="uQ_xCeELiff1Q2TgGja5-190" value="" style="ellipse;whiteSpace=wrap;html=1;aspect=fixed;" vertex="1" parent="1">
          <mxGeometry x="440" y="1158" width="80" height="80" as="geometry" />
        </mxCell>
        <mxCell id="uQ_xCeELiff1Q2TgGja5-191" value="" style="endArrow=classic;html=1;rounded=0;exitX=0.5;exitY=0;exitDx=0;exitDy=0;entryX=0.75;entryY=0;entryDx=0;entryDy=0;" edge="1" parent="1" source="uQ_xCeELiff1Q2TgGja5-190" target="uQ_xCeELiff1Q2TgGja5-184">
          <mxGeometry width="50" height="50" relative="1" as="geometry">
            <mxPoint x="370" y="1120" as="sourcePoint" />
            <mxPoint x="460" y="1040" as="targetPoint" />
            <Array as="points">
              <mxPoint x="480" y="1080" />
              <mxPoint x="340" y="1080" />
            </Array>
          </mxGeometry>
        </mxCell>
        <mxCell id="uQ_xCeELiff1Q2TgGja5-192" value="" style="ellipse;whiteSpace=wrap;html=1;aspect=fixed;fillColor=#000000;" vertex="1" parent="1">
          <mxGeometry x="470" y="1188" width="20" height="20" as="geometry" />
        </mxCell>
        <mxCell id="uQ_xCeELiff1Q2TgGja5-194" value="" style="rounded=0;whiteSpace=wrap;html=1;" vertex="1" parent="1">
          <mxGeometry x="673" y="1278" width="80" height="10" as="geometry" />
        </mxCell>
        <mxCell id="uQ_xCeELiff1Q2TgGja5-199" value="getPath" style="text;html=1;strokeColor=none;fillColor=none;align=center;verticalAlign=middle;whiteSpace=wrap;rounded=0;" vertex="1" parent="1">
          <mxGeometry x="675" y="1183" width="60" height="30" as="geometry" />
        </mxCell>
        <mxCell id="uQ_xCeELiff1Q2TgGja5-200" value="" style="rounded=0;whiteSpace=wrap;html=1;" vertex="1" parent="1">
          <mxGeometry x="280" y="1278" width="80" height="10" as="geometry" />
        </mxCell>
        <mxCell id="uQ_xCeELiff1Q2TgGja5-201" value="" style="endArrow=classic;html=1;rounded=0;exitX=0.5;exitY=1;exitDx=0;exitDy=0;entryX=0.5;entryY=0;entryDx=0;entryDy=0;" edge="1" parent="1" source="uQ_xCeELiff1Q2TgGja5-188" target="uQ_xCeELiff1Q2TgGja5-200">
          <mxGeometry width="50" height="50" relative="1" as="geometry">
            <mxPoint x="500" y="1278" as="sourcePoint" />
            <mxPoint x="550" y="1228" as="targetPoint" />
          </mxGeometry>
        </mxCell>
        <mxCell id="uQ_xCeELiff1Q2TgGja5-202" value="" style="endArrow=classic;html=1;rounded=0;exitX=0.75;exitY=1;exitDx=0;exitDy=0;" edge="1" parent="1" source="uQ_xCeELiff1Q2TgGja5-200">
          <mxGeometry width="50" height="50" relative="1" as="geometry">
            <mxPoint x="320" y="1298" as="sourcePoint" />
            <mxPoint x="480" y="1238" as="targetPoint" />
            <Array as="points">
              <mxPoint x="340" y="1320" />
              <mxPoint x="480" y="1320" />
            </Array>
          </mxGeometry>
        </mxCell>
        <mxCell id="uQ_xCeELiff1Q2TgGja5-207" value="PathList&lt;br&gt;Lock" style="text;html=1;strokeColor=none;fillColor=none;align=center;verticalAlign=middle;whiteSpace=wrap;rounded=0;" vertex="1" parent="1">
          <mxGeometry x="520" y="1183" width="60" height="30" as="geometry" />
        </mxCell>
        <mxCell id="uQ_xCeELiff1Q2TgGja5-208" value="" style="ellipse;shape=cloud;whiteSpace=wrap;html=1;" vertex="1" parent="1">
          <mxGeometry x="620" y="1135" width="170" height="120" as="geometry" />
        </mxCell>
        <mxCell id="uQ_xCeELiff1Q2TgGja5-216" value="Slaves&lt;br&gt;Thread" style="text;html=1;strokeColor=none;fillColor=none;align=center;verticalAlign=middle;whiteSpace=wrap;rounded=0;" vertex="1" parent="1">
          <mxGeometry x="675" y="1183" width="60" height="30" as="geometry" />
        </mxCell>
        <mxCell id="uQ_xCeELiff1Q2TgGja5-217" value="" style="endArrow=classic;html=1;rounded=0;exitX=0.25;exitY=1;exitDx=0;exitDy=0;" edge="1" parent="1" source="uQ_xCeELiff1Q2TgGja5-200">
          <mxGeometry width="50" height="50" relative="1" as="geometry">
            <mxPoint x="570" y="1190" as="sourcePoint" />
            <mxPoint x="300" y="1360" as="targetPoint" />
          </mxGeometry>
        </mxCell>
        <mxCell id="uQ_xCeELiff1Q2TgGja5-218" value="" style="ellipse;whiteSpace=wrap;html=1;aspect=fixed;" vertex="1" parent="1">
          <mxGeometry x="260" y="1360" width="80" height="80" as="geometry" />
        </mxCell>
        <mxCell id="uQ_xCeELiff1Q2TgGja5-219" value="" style="ellipse;whiteSpace=wrap;html=1;aspect=fixed;" vertex="1" parent="1">
          <mxGeometry x="80" y="1560" width="80" height="80" as="geometry" />
        </mxCell>
        <mxCell id="uQ_xCeELiff1Q2TgGja5-220" style="edgeStyle=orthogonalEdgeStyle;rounded=0;orthogonalLoop=1;jettySize=auto;html=1;entryX=0.5;entryY=0;entryDx=0;entryDy=0;" edge="1" parent="1" source="uQ_xCeELiff1Q2TgGja5-221" target="uQ_xCeELiff1Q2TgGja5-233">
          <mxGeometry relative="1" as="geometry" />
        </mxCell>
        <mxCell id="uQ_xCeELiff1Q2TgGja5-221" value="" style="ellipse;whiteSpace=wrap;html=1;aspect=fixed;" vertex="1" parent="1">
          <mxGeometry x="-80" y="1560" width="80" height="80" as="geometry" />
        </mxCell>
        <mxCell id="uQ_xCeELiff1Q2TgGja5-222" style="edgeStyle=orthogonalEdgeStyle;rounded=0;orthogonalLoop=1;jettySize=auto;html=1;entryX=0.5;entryY=0;entryDx=0;entryDy=0;" edge="1" parent="1" source="uQ_xCeELiff1Q2TgGja5-223" target="uQ_xCeELiff1Q2TgGja5-234">
          <mxGeometry relative="1" as="geometry" />
        </mxCell>
        <mxCell id="uQ_xCeELiff1Q2TgGja5-223" value="" style="ellipse;whiteSpace=wrap;html=1;aspect=fixed;" vertex="1" parent="1">
          <mxGeometry x="240" y="1560" width="80" height="80" as="geometry" />
        </mxCell>
        <mxCell id="uQ_xCeELiff1Q2TgGja5-224" value="" style="endArrow=classic;html=1;rounded=0;exitX=0.5;exitY=1;exitDx=0;exitDy=0;entryX=0.75;entryY=0;entryDx=0;entryDy=0;" edge="1" parent="1" source="uQ_xCeELiff1Q2TgGja5-218" target="uQ_xCeELiff1Q2TgGja5-225">
          <mxGeometry width="50" height="50" relative="1" as="geometry">
            <mxPoint x="260" y="1580" as="sourcePoint" />
            <mxPoint x="300" y="1480" as="targetPoint" />
          </mxGeometry>
        </mxCell>
        <mxCell id="uQ_xCeELiff1Q2TgGja5-225" value="" style="rounded=0;whiteSpace=wrap;html=1;" vertex="1" parent="1">
          <mxGeometry x="240" y="1520" width="80" height="10" as="geometry" />
        </mxCell>
        <mxCell id="uQ_xCeELiff1Q2TgGja5-226" value="" style="endArrow=classic;html=1;rounded=0;exitX=0.5;exitY=1;exitDx=0;exitDy=0;entryX=0.5;entryY=0;entryDx=0;entryDy=0;" edge="1" parent="1" source="uQ_xCeELiff1Q2TgGja5-225" target="uQ_xCeELiff1Q2TgGja5-223">
          <mxGeometry width="50" height="50" relative="1" as="geometry">
            <mxPoint x="240" y="1620" as="sourcePoint" />
            <mxPoint x="290" y="1570" as="targetPoint" />
          </mxGeometry>
        </mxCell>
        <mxCell id="uQ_xCeELiff1Q2TgGja5-227" value="" style="ellipse;whiteSpace=wrap;html=1;aspect=fixed;fillColor=#000000;" vertex="1" parent="1">
          <mxGeometry x="110" y="1590" width="20" height="20" as="geometry" />
        </mxCell>
        <mxCell id="uQ_xCeELiff1Q2TgGja5-228" value="" style="endArrow=classic;html=1;rounded=0;exitX=0.5;exitY=0;exitDx=0;exitDy=0;entryX=0.25;entryY=0;entryDx=0;entryDy=0;" edge="1" parent="1" source="uQ_xCeELiff1Q2TgGja5-219" target="uQ_xCeELiff1Q2TgGja5-225">
          <mxGeometry width="50" height="50" relative="1" as="geometry">
            <mxPoint x="260" y="1580" as="sourcePoint" />
            <mxPoint x="310" y="1530" as="targetPoint" />
            <Array as="points">
              <mxPoint x="120" y="1480" />
              <mxPoint x="260" y="1480" />
            </Array>
          </mxGeometry>
        </mxCell>
        <mxCell id="uQ_xCeELiff1Q2TgGja5-229" value="" style="endArrow=classic;html=1;rounded=0;exitX=0.5;exitY=0;exitDx=0;exitDy=0;entryX=0.75;entryY=0;entryDx=0;entryDy=0;" edge="1" parent="1" source="uQ_xCeELiff1Q2TgGja5-219" target="uQ_xCeELiff1Q2TgGja5-231">
          <mxGeometry width="50" height="50" relative="1" as="geometry">
            <mxPoint x="230" y="1590" as="sourcePoint" />
            <mxPoint x="-40" y="1510" as="targetPoint" />
            <Array as="points">
              <mxPoint x="120" y="1480" />
              <mxPoint x="-20" y="1480" />
            </Array>
          </mxGeometry>
        </mxCell>
        <mxCell id="uQ_xCeELiff1Q2TgGja5-230" style="edgeStyle=orthogonalEdgeStyle;rounded=0;orthogonalLoop=1;jettySize=auto;html=1;" edge="1" parent="1" source="uQ_xCeELiff1Q2TgGja5-231" target="uQ_xCeELiff1Q2TgGja5-221">
          <mxGeometry relative="1" as="geometry" />
        </mxCell>
        <mxCell id="uQ_xCeELiff1Q2TgGja5-231" value="" style="rounded=0;whiteSpace=wrap;html=1;" vertex="1" parent="1">
          <mxGeometry x="-80" y="1520" width="80" height="10" as="geometry" />
        </mxCell>
        <mxCell id="uQ_xCeELiff1Q2TgGja5-232" style="edgeStyle=orthogonalEdgeStyle;rounded=0;orthogonalLoop=1;jettySize=auto;html=1;entryX=0.25;entryY=0;entryDx=0;entryDy=0;" edge="1" parent="1" target="uQ_xCeELiff1Q2TgGja5-231">
          <mxGeometry relative="1" as="geometry">
            <mxPoint x="-60" y="1440" as="sourcePoint" />
          </mxGeometry>
        </mxCell>
        <mxCell id="uQ_xCeELiff1Q2TgGja5-233" value="" style="rounded=0;whiteSpace=wrap;html=1;" vertex="1" parent="1">
          <mxGeometry x="-80" y="1680" width="80" height="10" as="geometry" />
        </mxCell>
        <mxCell id="uQ_xCeELiff1Q2TgGja5-234" value="" style="rounded=0;whiteSpace=wrap;html=1;" vertex="1" parent="1">
          <mxGeometry x="240" y="1680" width="80" height="10" as="geometry" />
        </mxCell>
        <mxCell id="uQ_xCeELiff1Q2TgGja5-235" value="" style="endArrow=classic;html=1;rounded=0;exitX=0.75;exitY=1;exitDx=0;exitDy=0;entryX=0.5;entryY=1;entryDx=0;entryDy=0;" edge="1" parent="1" source="uQ_xCeELiff1Q2TgGja5-233" target="uQ_xCeELiff1Q2TgGja5-219">
          <mxGeometry width="50" height="50" relative="1" as="geometry">
            <mxPoint x="60" y="1690" as="sourcePoint" />
            <mxPoint x="110" y="1640" as="targetPoint" />
            <Array as="points">
              <mxPoint x="-20" y="1720" />
              <mxPoint x="120" y="1720" />
            </Array>
          </mxGeometry>
        </mxCell>
        <mxCell id="uQ_xCeELiff1Q2TgGja5-236" value="" style="endArrow=classic;html=1;rounded=0;exitX=0.25;exitY=1;exitDx=0;exitDy=0;entryX=0.5;entryY=1;entryDx=0;entryDy=0;" edge="1" parent="1" source="uQ_xCeELiff1Q2TgGja5-234" target="uQ_xCeELiff1Q2TgGja5-219">
          <mxGeometry width="50" height="50" relative="1" as="geometry">
            <mxPoint x="60" y="1690" as="sourcePoint" />
            <mxPoint x="110" y="1640" as="targetPoint" />
            <Array as="points">
              <mxPoint x="260" y="1720" />
              <mxPoint x="120" y="1720" />
            </Array>
          </mxGeometry>
        </mxCell>
        <mxCell id="uQ_xCeELiff1Q2TgGja5-237" value="" style="endArrow=classic;html=1;rounded=0;exitX=0.25;exitY=1;exitDx=0;exitDy=0;entryX=0.16;entryY=0.55;entryDx=0;entryDy=0;entryPerimeter=0;" edge="1" parent="1" source="uQ_xCeELiff1Q2TgGja5-233" target="uQ_xCeELiff1Q2TgGja5-238">
          <mxGeometry width="50" height="50" relative="1" as="geometry">
            <mxPoint x="60" y="1690" as="sourcePoint" />
            <mxPoint x="-111" y="1395" as="targetPoint" />
            <Array as="points">
              <mxPoint x="-60" y="1720" />
              <mxPoint x="-160" y="1720" />
              <mxPoint x="-160" y="1386" />
            </Array>
          </mxGeometry>
        </mxCell>
        <mxCell id="uQ_xCeELiff1Q2TgGja5-238" value="" style="ellipse;shape=cloud;whiteSpace=wrap;html=1;" vertex="1" parent="1">
          <mxGeometry x="-150" y="1320" width="170" height="120" as="geometry" />
        </mxCell>
        <mxCell id="uQ_xCeELiff1Q2TgGja5-239" value="Slaved or event dispatch&lt;br&gt;threads" style="text;html=1;strokeColor=none;fillColor=none;align=center;verticalAlign=middle;whiteSpace=wrap;rounded=0;" vertex="1" parent="1">
          <mxGeometry x="-90" y="1365" width="60" height="30" as="geometry" />
        </mxCell>
        <mxCell id="uQ_xCeELiff1Q2TgGja5-240" value="Change&lt;br&gt;State" style="text;html=1;strokeColor=none;fillColor=none;align=center;verticalAlign=middle;whiteSpace=wrap;rounded=0;" vertex="1" parent="1">
          <mxGeometry x="-140" y="1585" width="60" height="30" as="geometry" />
        </mxCell>
        <mxCell id="uQ_xCeELiff1Q2TgGja5-241" value="Master&lt;br&gt;State&lt;br&gt;Lock" style="text;html=1;strokeColor=none;fillColor=none;align=center;verticalAlign=middle;whiteSpace=wrap;rounded=0;" vertex="1" parent="1">
          <mxGeometry x="20" y="1590" width="60" height="30" as="geometry" />
        </mxCell>
        <mxCell id="uQ_xCeELiff1Q2TgGja5-242" value="Read state" style="text;html=1;strokeColor=none;fillColor=none;align=center;verticalAlign=middle;whiteSpace=wrap;rounded=0;" vertex="1" parent="1">
          <mxGeometry x="182" y="1585" width="60" height="30" as="geometry" />
        </mxCell>
        <mxCell id="uQ_xCeELiff1Q2TgGja5-243" value="" style="ellipse;whiteSpace=wrap;html=1;aspect=fixed;" vertex="1" parent="1">
          <mxGeometry x="260" y="1760" width="80" height="80" as="geometry" />
        </mxCell>
        <mxCell id="uQ_xCeELiff1Q2TgGja5-244" value="" style="endArrow=classic;html=1;rounded=0;exitX=0.75;exitY=1;exitDx=0;exitDy=0;entryX=0.5;entryY=0;entryDx=0;entryDy=0;" edge="1" parent="1" source="uQ_xCeELiff1Q2TgGja5-234" target="uQ_xCeELiff1Q2TgGja5-243">
          <mxGeometry width="50" height="50" relative="1" as="geometry">
            <mxPoint x="390" y="1770" as="sourcePoint" />
            <mxPoint x="440" y="1720" as="targetPoint" />
          </mxGeometry>
        </mxCell>
        <mxCell id="uQ_xCeELiff1Q2TgGja5-245" value="" style="rounded=0;whiteSpace=wrap;html=1;" vertex="1" parent="1">
          <mxGeometry x="260" y="1880" width="80" height="10" as="geometry" />
        </mxCell>
        <mxCell id="uQ_xCeELiff1Q2TgGja5-246" value="" style="endArrow=classic;html=1;rounded=0;exitX=0.5;exitY=1;exitDx=0;exitDy=0;entryX=0.25;entryY=0;entryDx=0;entryDy=0;" edge="1" parent="1" source="uQ_xCeELiff1Q2TgGja5-245" target="uQ_xCeELiff1Q2TgGja5-248">
          <mxGeometry width="50" height="50" relative="1" as="geometry">
            <mxPoint x="260" y="2010" as="sourcePoint" />
            <mxPoint x="300" y="1920" as="targetPoint" />
          </mxGeometry>
        </mxCell>
        <mxCell id="uQ_xCeELiff1Q2TgGja5-247" value="" style="rounded=0;whiteSpace=wrap;html=1;" vertex="1" parent="1">
          <mxGeometry x="260" y="1880" width="80" height="10" as="geometry" />
        </mxCell>
        <mxCell id="uQ_xCeELiff1Q2TgGja5-248" value="" style="rounded=0;whiteSpace=wrap;html=1;" vertex="1" parent="1">
          <mxGeometry x="280" y="1958" width="80" height="10" as="geometry" />
        </mxCell>
        <mxCell id="uQ_xCeELiff1Q2TgGja5-249" value="Activate&lt;span style=&quot;white-space: pre;&quot;&gt;	&lt;/span&gt;" style="text;html=1;strokeColor=none;fillColor=none;align=center;verticalAlign=middle;whiteSpace=wrap;rounded=0;" vertex="1" parent="1">
          <mxGeometry x="365" y="2023" width="60" height="30" as="geometry" />
        </mxCell>
        <mxCell id="uQ_xCeELiff1Q2TgGja5-250" value="" style="ellipse;whiteSpace=wrap;html=1;aspect=fixed;" vertex="1" parent="1">
          <mxGeometry x="280" y="1998" width="80" height="80" as="geometry" />
        </mxCell>
        <mxCell id="uQ_xCeELiff1Q2TgGja5-251" value="" style="endArrow=classic;html=1;rounded=0;exitX=0.5;exitY=1;exitDx=0;exitDy=0;" edge="1" parent="1" source="uQ_xCeELiff1Q2TgGja5-248" target="uQ_xCeELiff1Q2TgGja5-250">
          <mxGeometry width="50" height="50" relative="1" as="geometry">
            <mxPoint x="370" y="1998" as="sourcePoint" />
            <mxPoint x="420" y="1948" as="targetPoint" />
          </mxGeometry>
        </mxCell>
        <mxCell id="uQ_xCeELiff1Q2TgGja5-252" value="" style="ellipse;whiteSpace=wrap;html=1;aspect=fixed;" vertex="1" parent="1">
          <mxGeometry x="440" y="1998" width="80" height="80" as="geometry" />
        </mxCell>
        <mxCell id="uQ_xCeELiff1Q2TgGja5-253" value="" style="endArrow=classic;html=1;rounded=0;exitX=0.5;exitY=0;exitDx=0;exitDy=0;entryX=0.75;entryY=0;entryDx=0;entryDy=0;" edge="1" parent="1" source="uQ_xCeELiff1Q2TgGja5-252" target="uQ_xCeELiff1Q2TgGja5-248">
          <mxGeometry width="50" height="50" relative="1" as="geometry">
            <mxPoint x="370" y="1960" as="sourcePoint" />
            <mxPoint x="460" y="1880" as="targetPoint" />
            <Array as="points">
              <mxPoint x="480" y="1920" />
              <mxPoint x="340" y="1920" />
            </Array>
          </mxGeometry>
        </mxCell>
        <mxCell id="uQ_xCeELiff1Q2TgGja5-254" value="" style="ellipse;whiteSpace=wrap;html=1;aspect=fixed;fillColor=#000000;" vertex="1" parent="1">
          <mxGeometry x="470" y="2028" width="20" height="20" as="geometry" />
        </mxCell>
        <mxCell id="uQ_xCeELiff1Q2TgGja5-257" value="getPath" style="text;html=1;strokeColor=none;fillColor=none;align=center;verticalAlign=middle;whiteSpace=wrap;rounded=0;" vertex="1" parent="1">
          <mxGeometry x="675" y="2023" width="60" height="30" as="geometry" />
        </mxCell>
        <mxCell id="uQ_xCeELiff1Q2TgGja5-258" value="" style="rounded=0;whiteSpace=wrap;html=1;" vertex="1" parent="1">
          <mxGeometry x="280" y="2118" width="80" height="10" as="geometry" />
        </mxCell>
        <mxCell id="uQ_xCeELiff1Q2TgGja5-259" value="" style="endArrow=classic;html=1;rounded=0;exitX=0.5;exitY=1;exitDx=0;exitDy=0;entryX=0.5;entryY=0;entryDx=0;entryDy=0;" edge="1" parent="1" source="uQ_xCeELiff1Q2TgGja5-250" target="uQ_xCeELiff1Q2TgGja5-258">
          <mxGeometry width="50" height="50" relative="1" as="geometry">
            <mxPoint x="500" y="2118" as="sourcePoint" />
            <mxPoint x="550" y="2068" as="targetPoint" />
          </mxGeometry>
        </mxCell>
        <mxCell id="uQ_xCeELiff1Q2TgGja5-260" value="" style="endArrow=classic;html=1;rounded=0;exitX=0.75;exitY=1;exitDx=0;exitDy=0;" edge="1" parent="1" source="uQ_xCeELiff1Q2TgGja5-258">
          <mxGeometry width="50" height="50" relative="1" as="geometry">
            <mxPoint x="320" y="2138" as="sourcePoint" />
            <mxPoint x="480" y="2078" as="targetPoint" />
            <Array as="points">
              <mxPoint x="340" y="2160" />
              <mxPoint x="480" y="2160" />
            </Array>
          </mxGeometry>
        </mxCell>
        <mxCell id="uQ_xCeELiff1Q2TgGja5-264" value="PathList&lt;br&gt;Lock" style="text;html=1;strokeColor=none;fillColor=none;align=center;verticalAlign=middle;whiteSpace=wrap;rounded=0;" vertex="1" parent="1">
          <mxGeometry x="520" y="2023" width="60" height="30" as="geometry" />
        </mxCell>
        <mxCell id="uQ_xCeELiff1Q2TgGja5-265" value="" style="ellipse;shape=cloud;whiteSpace=wrap;html=1;" vertex="1" parent="1">
          <mxGeometry x="622" y="1975" width="170" height="120" as="geometry" />
        </mxCell>
        <mxCell id="uQ_xCeELiff1Q2TgGja5-266" value="" style="endArrow=classic;html=1;rounded=0;exitX=0.5;exitY=0;exitDx=0;exitDy=0;entryX=0.4;entryY=0.1;entryDx=0;entryDy=0;entryPerimeter=0;" edge="1" parent="1" source="uQ_xCeELiff1Q2TgGja5-252" target="uQ_xCeELiff1Q2TgGja5-265">
          <mxGeometry width="50" height="50" relative="1" as="geometry">
            <mxPoint x="790" y="1840" as="sourcePoint" />
            <mxPoint x="705" y="1935" as="targetPoint" />
            <Array as="points">
              <mxPoint x="480" y="1920" />
              <mxPoint x="690" y="1920" />
            </Array>
          </mxGeometry>
        </mxCell>
        <mxCell id="uQ_xCeELiff1Q2TgGja5-267" value="Slaves&lt;br&gt;Thread" style="text;html=1;strokeColor=none;fillColor=none;align=center;verticalAlign=middle;whiteSpace=wrap;rounded=0;" vertex="1" parent="1">
          <mxGeometry x="675" y="2023" width="60" height="30" as="geometry" />
        </mxCell>
        <mxCell id="uQ_xCeELiff1Q2TgGja5-268" value="" style="endArrow=classic;html=1;rounded=0;exitX=0.25;exitY=1;exitDx=0;exitDy=0;" edge="1" parent="1" source="uQ_xCeELiff1Q2TgGja5-258">
          <mxGeometry width="50" height="50" relative="1" as="geometry">
            <mxPoint x="570" y="2030" as="sourcePoint" />
            <mxPoint x="300" y="2200" as="targetPoint" />
          </mxGeometry>
        </mxCell>
        <mxCell id="uQ_xCeELiff1Q2TgGja5-269" value="" style="endArrow=classic;html=1;rounded=0;exitX=0.5;exitY=1;exitDx=0;exitDy=0;entryX=0.5;entryY=0;entryDx=0;entryDy=0;" edge="1" parent="1" source="uQ_xCeELiff1Q2TgGja5-243" target="uQ_xCeELiff1Q2TgGja5-247">
          <mxGeometry width="50" height="50" relative="1" as="geometry">
            <mxPoint x="390" y="1930" as="sourcePoint" />
            <mxPoint x="440" y="1880" as="targetPoint" />
          </mxGeometry>
        </mxCell>
        <mxCell id="uQ_xCeELiff1Q2TgGja5-270" value="" style="ellipse;whiteSpace=wrap;html=1;aspect=fixed;" vertex="1" parent="1">
          <mxGeometry x="260" y="2200" width="80" height="80" as="geometry" />
        </mxCell>
        <mxCell id="uQ_xCeELiff1Q2TgGja5-271" value="If ( state&lt;br&gt;==&lt;br&gt;off )" style="text;html=1;strokeColor=none;fillColor=none;align=center;verticalAlign=middle;whiteSpace=wrap;rounded=0;" vertex="1" parent="1">
          <mxGeometry x="340" y="2225" width="60" height="30" as="geometry" />
        </mxCell>
        <mxCell id="uQ_xCeELiff1Q2TgGja5-272" value="" style="endArrow=classic;html=1;rounded=0;exitX=0.5;exitY=1;exitDx=0;exitDy=0;" edge="1" parent="1">
          <mxGeometry width="50" height="50" relative="1" as="geometry">
            <mxPoint x="300" y="2280" as="sourcePoint" />
            <mxPoint x="220" y="2320" as="targetPoint" />
          </mxGeometry>
        </mxCell>
        <mxCell id="uQ_xCeELiff1Q2TgGja5-273" value="" style="endArrow=classic;html=1;rounded=0;" edge="1" parent="1">
          <mxGeometry width="50" height="50" relative="1" as="geometry">
            <mxPoint x="300" y="2280" as="sourcePoint" />
            <mxPoint x="380" y="2320" as="targetPoint" />
          </mxGeometry>
        </mxCell>
        <mxCell id="uQ_xCeELiff1Q2TgGja5-274" value="" style="rounded=0;whiteSpace=wrap;html=1;" vertex="1" parent="1">
          <mxGeometry x="180" y="2320" width="80" height="10" as="geometry" />
        </mxCell>
        <mxCell id="uQ_xCeELiff1Q2TgGja5-275" value="" style="rounded=0;whiteSpace=wrap;html=1;" vertex="1" parent="1">
          <mxGeometry x="340" y="2320" width="80" height="10" as="geometry" />
        </mxCell>
        <mxCell id="uQ_xCeELiff1Q2TgGja5-276" value="False" style="text;html=1;strokeColor=none;fillColor=none;align=center;verticalAlign=middle;whiteSpace=wrap;rounded=0;" vertex="1" parent="1">
          <mxGeometry x="200" y="2280" width="60" height="30" as="geometry" />
        </mxCell>
        <mxCell id="uQ_xCeELiff1Q2TgGja5-277" value="True" style="text;html=1;strokeColor=none;fillColor=none;align=center;verticalAlign=middle;whiteSpace=wrap;rounded=0;" vertex="1" parent="1">
          <mxGeometry x="330" y="2280" width="60" height="30" as="geometry" />
        </mxCell>
        <mxCell id="uQ_xCeELiff1Q2TgGja5-278" value="" style="rounded=0;whiteSpace=wrap;html=1;" vertex="1" parent="1">
          <mxGeometry x="340" y="2320" width="80" height="10" as="geometry" />
        </mxCell>
        <mxCell id="uQ_xCeELiff1Q2TgGja5-279" value="" style="endArrow=classic;html=1;rounded=0;exitX=0.5;exitY=1;exitDx=0;exitDy=0;entryX=0;entryY=0.5;entryDx=0;entryDy=0;" edge="1" parent="1" source="uQ_xCeELiff1Q2TgGja5-274" target="uQ_xCeELiff1Q2TgGja5-53">
          <mxGeometry width="50" height="50" relative="1" as="geometry">
            <mxPoint x="750" y="1970" as="sourcePoint" />
            <mxPoint x="800" y="1920" as="targetPoint" />
            <Array as="points">
              <mxPoint x="220" y="2410" />
              <mxPoint x="-300" y="2410" />
              <mxPoint x="-300" y="-1130" />
            </Array>
          </mxGeometry>
        </mxCell>
        <mxCell id="uQ_xCeELiff1Q2TgGja5-280" value="" style="endArrow=classic;html=1;rounded=0;exitX=0.5;exitY=1;exitDx=0;exitDy=0;entryX=0;entryY=0.5;entryDx=0;entryDy=0;" edge="1" parent="1" source="uQ_xCeELiff1Q2TgGja5-278" target="uQ_xCeELiff1Q2TgGja5-281">
          <mxGeometry width="50" height="50" relative="1" as="geometry">
            <mxPoint x="330" y="2320" as="sourcePoint" />
            <mxPoint x="380" y="2360" as="targetPoint" />
            <Array as="points">
              <mxPoint x="380" y="2520" />
            </Array>
          </mxGeometry>
        </mxCell>
        <mxCell id="uQ_xCeELiff1Q2TgGja5-281" value="" style="ellipse;whiteSpace=wrap;html=1;aspect=fixed;" vertex="1" parent="1">
          <mxGeometry x="560" y="2480" width="80" height="80" as="geometry" />
        </mxCell>
        <mxCell id="uQ_xCeELiff1Q2TgGja5-282" value="Break" style="text;html=1;strokeColor=none;fillColor=none;align=center;verticalAlign=middle;whiteSpace=wrap;rounded=0;" vertex="1" parent="1">
          <mxGeometry x="570" y="2450" width="60" height="30" as="geometry" />
        </mxCell>
        <mxCell id="uQ_xCeELiff1Q2TgGja5-286" value="" style="rounded=0;whiteSpace=wrap;html=1;" vertex="1" parent="1">
          <mxGeometry x="580" y="2640" width="80" height="10" as="geometry" />
        </mxCell>
        <mxCell id="uQ_xCeELiff1Q2TgGja5-287" value="" style="endArrow=classic;html=1;rounded=0;entryX=0.25;entryY=0;entryDx=0;entryDy=0;exitX=0.5;exitY=1;exitDx=0;exitDy=0;" edge="1" parent="1" target="uQ_xCeELiff1Q2TgGja5-286">
          <mxGeometry width="50" height="50" relative="1" as="geometry">
            <mxPoint x="600" y="2560" as="sourcePoint" />
            <mxPoint x="850" y="2540" as="targetPoint" />
          </mxGeometry>
        </mxCell>
        <mxCell id="uQ_xCeELiff1Q2TgGja5-288" value="Put&lt;br&gt;terminate&lt;br&gt;message" style="text;html=1;strokeColor=none;fillColor=none;align=center;verticalAlign=middle;whiteSpace=wrap;rounded=0;" vertex="1" parent="1">
          <mxGeometry x="660" y="2705" width="60" height="30" as="geometry" />
        </mxCell>
        <mxCell id="uQ_xCeELiff1Q2TgGja5-290" value="" style="ellipse;whiteSpace=wrap;html=1;aspect=fixed;" vertex="1" parent="1">
          <mxGeometry x="580" y="2680" width="80" height="80" as="geometry" />
        </mxCell>
        <mxCell id="uQ_xCeELiff1Q2TgGja5-291" value="" style="endArrow=classic;html=1;rounded=0;exitX=0.5;exitY=1;exitDx=0;exitDy=0;" edge="1" parent="1" source="uQ_xCeELiff1Q2TgGja5-286" target="uQ_xCeELiff1Q2TgGja5-290">
          <mxGeometry width="50" height="50" relative="1" as="geometry">
            <mxPoint x="670" y="2680" as="sourcePoint" />
            <mxPoint x="720" y="2630" as="targetPoint" />
          </mxGeometry>
        </mxCell>
        <mxCell id="uQ_xCeELiff1Q2TgGja5-292" value="" style="ellipse;whiteSpace=wrap;html=1;aspect=fixed;" vertex="1" parent="1">
          <mxGeometry x="740" y="2680" width="80" height="80" as="geometry" />
        </mxCell>
        <mxCell id="uQ_xCeELiff1Q2TgGja5-293" value="" style="endArrow=classic;html=1;rounded=0;exitX=0.5;exitY=0;exitDx=0;exitDy=0;entryX=0.75;entryY=0;entryDx=0;entryDy=0;" edge="1" parent="1" source="uQ_xCeELiff1Q2TgGja5-292" target="uQ_xCeELiff1Q2TgGja5-286">
          <mxGeometry width="50" height="50" relative="1" as="geometry">
            <mxPoint x="670" y="2680" as="sourcePoint" />
            <mxPoint x="760" y="2600" as="targetPoint" />
            <Array as="points">
              <mxPoint x="780" y="2600" />
              <mxPoint x="640" y="2600" />
            </Array>
          </mxGeometry>
        </mxCell>
        <mxCell id="uQ_xCeELiff1Q2TgGja5-294" value="" style="ellipse;whiteSpace=wrap;html=1;aspect=fixed;fillColor=#000000;" vertex="1" parent="1">
          <mxGeometry x="770" y="2710" width="20" height="20" as="geometry" />
        </mxCell>
        <mxCell id="uQ_xCeELiff1Q2TgGja5-295" value="" style="edgeStyle=orthogonalEdgeStyle;rounded=0;orthogonalLoop=1;jettySize=auto;html=1;" edge="1" parent="1" source="uQ_xCeELiff1Q2TgGja5-296">
          <mxGeometry relative="1" as="geometry">
            <mxPoint x="935" y="2730" as="targetPoint" />
          </mxGeometry>
        </mxCell>
        <mxCell id="uQ_xCeELiff1Q2TgGja5-296" value="" style="rounded=0;whiteSpace=wrap;html=1;" vertex="1" parent="1">
          <mxGeometry x="895" y="2640" width="80" height="10" as="geometry" />
        </mxCell>
        <mxCell id="uQ_xCeELiff1Q2TgGja5-297" value="" style="ellipse;whiteSpace=wrap;html=1;aspect=fixed;" vertex="1" parent="1">
          <mxGeometry x="895" y="2680" width="80" height="80" as="geometry" />
        </mxCell>
        <mxCell id="uQ_xCeELiff1Q2TgGja5-298" value="" style="endArrow=classic;html=1;rounded=0;exitX=0.5;exitY=1;exitDx=0;exitDy=0;" edge="1" parent="1" source="uQ_xCeELiff1Q2TgGja5-296" target="uQ_xCeELiff1Q2TgGja5-297">
          <mxGeometry width="50" height="50" relative="1" as="geometry">
            <mxPoint x="990" y="2680" as="sourcePoint" />
            <mxPoint x="1040" y="2630" as="targetPoint" />
          </mxGeometry>
        </mxCell>
        <mxCell id="uQ_xCeELiff1Q2TgGja5-299" value="" style="endArrow=classic;html=1;rounded=0;entryX=0.25;entryY=0;entryDx=0;entryDy=0;" edge="1" parent="1" target="uQ_xCeELiff1Q2TgGja5-296">
          <mxGeometry width="50" height="50" relative="1" as="geometry">
            <mxPoint x="780" y="2680" as="sourcePoint" />
            <mxPoint x="900" y="2600" as="targetPoint" />
            <Array as="points">
              <mxPoint x="780" y="2600" />
              <mxPoint x="915" y="2600" />
            </Array>
          </mxGeometry>
        </mxCell>
        <mxCell id="uQ_xCeELiff1Q2TgGja5-300" value="" style="endArrow=classic;html=1;rounded=0;entryX=0.796;entryY=-0.106;entryDx=0;entryDy=0;entryPerimeter=0;exitX=0.55;exitY=0.95;exitDx=0;exitDy=0;exitPerimeter=0;" edge="1" parent="1" target="uQ_xCeELiff1Q2TgGja5-296">
          <mxGeometry width="50" height="50" relative="1" as="geometry">
            <mxPoint x="959" y="2554" as="sourcePoint" />
            <mxPoint x="900" y="2600" as="targetPoint" />
          </mxGeometry>
        </mxCell>
        <mxCell id="uQ_xCeELiff1Q2TgGja5-301" value="Read" style="text;html=1;strokeColor=none;fillColor=none;align=center;verticalAlign=middle;whiteSpace=wrap;rounded=0;" vertex="1" parent="1">
          <mxGeometry x="975" y="2705" width="60" height="30" as="geometry" />
        </mxCell>
        <mxCell id="uQ_xCeELiff1Q2TgGja5-302" value="" style="rounded=0;whiteSpace=wrap;html=1;" vertex="1" parent="1">
          <mxGeometry x="580" y="2800" width="80" height="10" as="geometry" />
        </mxCell>
        <mxCell id="uQ_xCeELiff1Q2TgGja5-303" value="" style="endArrow=classic;html=1;rounded=0;exitX=0.5;exitY=1;exitDx=0;exitDy=0;entryX=0.5;entryY=0;entryDx=0;entryDy=0;" edge="1" parent="1" source="uQ_xCeELiff1Q2TgGja5-290" target="uQ_xCeELiff1Q2TgGja5-302">
          <mxGeometry width="50" height="50" relative="1" as="geometry">
            <mxPoint x="800" y="2800" as="sourcePoint" />
            <mxPoint x="850" y="2750" as="targetPoint" />
          </mxGeometry>
        </mxCell>
        <mxCell id="uQ_xCeELiff1Q2TgGja5-304" value="" style="endArrow=classic;html=1;rounded=0;exitX=0.75;exitY=1;exitDx=0;exitDy=0;" edge="1" parent="1" source="uQ_xCeELiff1Q2TgGja5-302">
          <mxGeometry width="50" height="50" relative="1" as="geometry">
            <mxPoint x="620" y="2820" as="sourcePoint" />
            <mxPoint x="780" y="2760" as="targetPoint" />
            <Array as="points">
              <mxPoint x="640" y="2840" />
              <mxPoint x="780" y="2840" />
            </Array>
          </mxGeometry>
        </mxCell>
        <mxCell id="uQ_xCeELiff1Q2TgGja5-305" value="" style="rounded=0;whiteSpace=wrap;html=1;" vertex="1" parent="1">
          <mxGeometry x="895" y="2800" width="80" height="10" as="geometry" />
        </mxCell>
        <mxCell id="uQ_xCeELiff1Q2TgGja5-306" value="" style="endArrow=classic;html=1;rounded=0;exitX=0.5;exitY=1;exitDx=0;exitDy=0;entryX=0.5;entryY=0;entryDx=0;entryDy=0;" edge="1" parent="1" source="uQ_xCeELiff1Q2TgGja5-297" target="uQ_xCeELiff1Q2TgGja5-305">
          <mxGeometry width="50" height="50" relative="1" as="geometry">
            <mxPoint x="600" y="2750" as="sourcePoint" />
            <mxPoint x="650" y="2700" as="targetPoint" />
          </mxGeometry>
        </mxCell>
        <mxCell id="uQ_xCeELiff1Q2TgGja5-307" value="" style="endArrow=classic;html=1;rounded=0;exitX=0.25;exitY=1;exitDx=0;exitDy=0;entryX=0.5;entryY=1;entryDx=0;entryDy=0;" edge="1" parent="1" source="uQ_xCeELiff1Q2TgGja5-305" target="uQ_xCeELiff1Q2TgGja5-292">
          <mxGeometry width="50" height="50" relative="1" as="geometry">
            <mxPoint x="880" y="2840" as="sourcePoint" />
            <mxPoint x="800" y="2770" as="targetPoint" />
            <Array as="points">
              <mxPoint x="915" y="2840" />
              <mxPoint x="780" y="2840" />
            </Array>
          </mxGeometry>
        </mxCell>
        <mxCell id="uQ_xCeELiff1Q2TgGja5-308" value="" style="endArrow=classic;html=1;rounded=0;exitX=0.75;exitY=1;exitDx=0;exitDy=0;entryX=0.875;entryY=0.5;entryDx=0;entryDy=0;entryPerimeter=0;" edge="1" parent="1" source="uQ_xCeELiff1Q2TgGja5-305">
          <mxGeometry width="50" height="50" relative="1" as="geometry">
            <mxPoint x="980" y="2830" as="sourcePoint" />
            <mxPoint x="1014" y="2500" as="targetPoint" />
            <Array as="points">
              <mxPoint x="955" y="2840" />
              <mxPoint x="1080" y="2840" />
              <mxPoint x="1080" y="2500" />
            </Array>
          </mxGeometry>
        </mxCell>
        <mxCell id="uQ_xCeELiff1Q2TgGja5-309" value="PathList&lt;br&gt;Lock" style="text;html=1;strokeColor=none;fillColor=none;align=center;verticalAlign=middle;whiteSpace=wrap;rounded=0;" vertex="1" parent="1">
          <mxGeometry x="820" y="2705" width="60" height="25" as="geometry" />
        </mxCell>
        <mxCell id="uQ_xCeELiff1Q2TgGja5-310" value="" style="ellipse;shape=cloud;whiteSpace=wrap;html=1;" vertex="1" parent="1">
          <mxGeometry x="865" y="2440" width="170" height="120" as="geometry" />
        </mxCell>
        <mxCell id="uQ_xCeELiff1Q2TgGja5-311" value="Slaves&lt;br&gt;Thread" style="text;html=1;strokeColor=none;fillColor=none;align=center;verticalAlign=middle;whiteSpace=wrap;rounded=0;" vertex="1" parent="1">
          <mxGeometry x="920" y="2485" width="60" height="30" as="geometry" />
        </mxCell>
        <mxCell id="uQ_xCeELiff1Q2TgGja5-312" value="" style="endArrow=classic;html=1;rounded=0;exitX=0.25;exitY=1;exitDx=0;exitDy=0;" edge="1" parent="1" source="uQ_xCeELiff1Q2TgGja5-302">
          <mxGeometry width="50" height="50" relative="1" as="geometry">
            <mxPoint x="850" y="2820" as="sourcePoint" />
            <mxPoint x="600" y="2880" as="targetPoint" />
          </mxGeometry>
        </mxCell>
        <mxCell id="uQ_xCeELiff1Q2TgGja5-313" value="" style="ellipse;whiteSpace=wrap;html=1;aspect=fixed;" vertex="1" parent="1">
          <mxGeometry x="560" y="2880" width="80" height="80" as="geometry" />
        </mxCell>
        <mxCell id="uQ_xCeELiff1Q2TgGja5-314" value="Join" style="text;html=1;strokeColor=none;fillColor=none;align=center;verticalAlign=middle;whiteSpace=wrap;rounded=0;" vertex="1" parent="1">
          <mxGeometry x="630" y="2905" width="60" height="30" as="geometry" />
        </mxCell>
        <mxCell id="uQ_xCeELiff1Q2TgGja5-316" value="" style="ellipse;whiteSpace=wrap;html=1;aspect=fixed;" vertex="1" parent="1">
          <mxGeometry x="380" y="3080" width="80" height="80" as="geometry" />
        </mxCell>
        <mxCell id="uQ_xCeELiff1Q2TgGja5-317" style="edgeStyle=orthogonalEdgeStyle;rounded=0;orthogonalLoop=1;jettySize=auto;html=1;entryX=0.5;entryY=0;entryDx=0;entryDy=0;" edge="1" parent="1" source="uQ_xCeELiff1Q2TgGja5-318" target="uQ_xCeELiff1Q2TgGja5-330">
          <mxGeometry relative="1" as="geometry" />
        </mxCell>
        <mxCell id="uQ_xCeELiff1Q2TgGja5-318" value="" style="ellipse;whiteSpace=wrap;html=1;aspect=fixed;" vertex="1" parent="1">
          <mxGeometry x="220" y="3080" width="80" height="80" as="geometry" />
        </mxCell>
        <mxCell id="uQ_xCeELiff1Q2TgGja5-319" style="edgeStyle=orthogonalEdgeStyle;rounded=0;orthogonalLoop=1;jettySize=auto;html=1;entryX=0.5;entryY=0;entryDx=0;entryDy=0;" edge="1" parent="1" source="uQ_xCeELiff1Q2TgGja5-320" target="uQ_xCeELiff1Q2TgGja5-331">
          <mxGeometry relative="1" as="geometry" />
        </mxCell>
        <mxCell id="uQ_xCeELiff1Q2TgGja5-320" value="" style="ellipse;whiteSpace=wrap;html=1;aspect=fixed;" vertex="1" parent="1">
          <mxGeometry x="540" y="3080" width="80" height="80" as="geometry" />
        </mxCell>
        <mxCell id="uQ_xCeELiff1Q2TgGja5-321" value="" style="endArrow=classic;html=1;rounded=0;exitX=0.5;exitY=1;exitDx=0;exitDy=0;entryX=0.75;entryY=0;entryDx=0;entryDy=0;" edge="1" parent="1" target="uQ_xCeELiff1Q2TgGja5-322">
          <mxGeometry width="50" height="50" relative="1" as="geometry">
            <mxPoint x="600" y="2960" as="sourcePoint" />
            <mxPoint x="600" y="3000" as="targetPoint" />
          </mxGeometry>
        </mxCell>
        <mxCell id="uQ_xCeELiff1Q2TgGja5-322" value="" style="rounded=0;whiteSpace=wrap;html=1;" vertex="1" parent="1">
          <mxGeometry x="540" y="3040" width="80" height="10" as="geometry" />
        </mxCell>
        <mxCell id="uQ_xCeELiff1Q2TgGja5-323" value="" style="endArrow=classic;html=1;rounded=0;exitX=0.5;exitY=1;exitDx=0;exitDy=0;entryX=0.5;entryY=0;entryDx=0;entryDy=0;" edge="1" parent="1" source="uQ_xCeELiff1Q2TgGja5-322" target="uQ_xCeELiff1Q2TgGja5-320">
          <mxGeometry width="50" height="50" relative="1" as="geometry">
            <mxPoint x="540" y="3140" as="sourcePoint" />
            <mxPoint x="590" y="3090" as="targetPoint" />
          </mxGeometry>
        </mxCell>
        <mxCell id="uQ_xCeELiff1Q2TgGja5-324" value="" style="ellipse;whiteSpace=wrap;html=1;aspect=fixed;fillColor=#000000;" vertex="1" parent="1">
          <mxGeometry x="410" y="3110" width="20" height="20" as="geometry" />
        </mxCell>
        <mxCell id="uQ_xCeELiff1Q2TgGja5-325" value="" style="endArrow=classic;html=1;rounded=0;exitX=0.5;exitY=0;exitDx=0;exitDy=0;entryX=0.25;entryY=0;entryDx=0;entryDy=0;" edge="1" parent="1" source="uQ_xCeELiff1Q2TgGja5-316" target="uQ_xCeELiff1Q2TgGja5-322">
          <mxGeometry width="50" height="50" relative="1" as="geometry">
            <mxPoint x="560" y="3100" as="sourcePoint" />
            <mxPoint x="610" y="3050" as="targetPoint" />
            <Array as="points">
              <mxPoint x="420" y="3000" />
              <mxPoint x="560" y="3000" />
            </Array>
          </mxGeometry>
        </mxCell>
        <mxCell id="uQ_xCeELiff1Q2TgGja5-326" value="" style="endArrow=classic;html=1;rounded=0;exitX=0.5;exitY=0;exitDx=0;exitDy=0;entryX=0.75;entryY=0;entryDx=0;entryDy=0;" edge="1" parent="1" source="uQ_xCeELiff1Q2TgGja5-316" target="uQ_xCeELiff1Q2TgGja5-328">
          <mxGeometry width="50" height="50" relative="1" as="geometry">
            <mxPoint x="530" y="3110" as="sourcePoint" />
            <mxPoint x="260" y="3030" as="targetPoint" />
            <Array as="points">
              <mxPoint x="420" y="3000" />
              <mxPoint x="280" y="3000" />
            </Array>
          </mxGeometry>
        </mxCell>
        <mxCell id="uQ_xCeELiff1Q2TgGja5-327" style="edgeStyle=orthogonalEdgeStyle;rounded=0;orthogonalLoop=1;jettySize=auto;html=1;" edge="1" parent="1" source="uQ_xCeELiff1Q2TgGja5-328" target="uQ_xCeELiff1Q2TgGja5-318">
          <mxGeometry relative="1" as="geometry" />
        </mxCell>
        <mxCell id="uQ_xCeELiff1Q2TgGja5-328" value="" style="rounded=0;whiteSpace=wrap;html=1;" vertex="1" parent="1">
          <mxGeometry x="220" y="3040" width="80" height="10" as="geometry" />
        </mxCell>
        <mxCell id="uQ_xCeELiff1Q2TgGja5-329" style="edgeStyle=orthogonalEdgeStyle;rounded=0;orthogonalLoop=1;jettySize=auto;html=1;entryX=0.25;entryY=0;entryDx=0;entryDy=0;" edge="1" parent="1" target="uQ_xCeELiff1Q2TgGja5-328">
          <mxGeometry relative="1" as="geometry">
            <mxPoint x="240" y="2960" as="sourcePoint" />
          </mxGeometry>
        </mxCell>
        <mxCell id="uQ_xCeELiff1Q2TgGja5-330" value="" style="rounded=0;whiteSpace=wrap;html=1;" vertex="1" parent="1">
          <mxGeometry x="220" y="3200" width="80" height="10" as="geometry" />
        </mxCell>
        <mxCell id="uQ_xCeELiff1Q2TgGja5-331" value="" style="rounded=0;whiteSpace=wrap;html=1;" vertex="1" parent="1">
          <mxGeometry x="540" y="3200" width="80" height="10" as="geometry" />
        </mxCell>
        <mxCell id="uQ_xCeELiff1Q2TgGja5-332" value="" style="endArrow=classic;html=1;rounded=0;exitX=0.75;exitY=1;exitDx=0;exitDy=0;entryX=0.5;entryY=1;entryDx=0;entryDy=0;" edge="1" parent="1" source="uQ_xCeELiff1Q2TgGja5-330" target="uQ_xCeELiff1Q2TgGja5-316">
          <mxGeometry width="50" height="50" relative="1" as="geometry">
            <mxPoint x="360" y="3210" as="sourcePoint" />
            <mxPoint x="410" y="3160" as="targetPoint" />
            <Array as="points">
              <mxPoint x="280" y="3240" />
              <mxPoint x="420" y="3240" />
            </Array>
          </mxGeometry>
        </mxCell>
        <mxCell id="uQ_xCeELiff1Q2TgGja5-333" value="" style="endArrow=classic;html=1;rounded=0;exitX=0.25;exitY=1;exitDx=0;exitDy=0;entryX=0.5;entryY=1;entryDx=0;entryDy=0;" edge="1" parent="1" source="uQ_xCeELiff1Q2TgGja5-331" target="uQ_xCeELiff1Q2TgGja5-316">
          <mxGeometry width="50" height="50" relative="1" as="geometry">
            <mxPoint x="360" y="3210" as="sourcePoint" />
            <mxPoint x="410" y="3160" as="targetPoint" />
            <Array as="points">
              <mxPoint x="560" y="3240" />
              <mxPoint x="420" y="3240" />
            </Array>
          </mxGeometry>
        </mxCell>
        <mxCell id="uQ_xCeELiff1Q2TgGja5-334" value="" style="endArrow=classic;html=1;rounded=0;exitX=0.25;exitY=1;exitDx=0;exitDy=0;entryX=0.16;entryY=0.55;entryDx=0;entryDy=0;entryPerimeter=0;" edge="1" parent="1" source="uQ_xCeELiff1Q2TgGja5-330" target="uQ_xCeELiff1Q2TgGja5-335">
          <mxGeometry width="50" height="50" relative="1" as="geometry">
            <mxPoint x="360" y="3210" as="sourcePoint" />
            <mxPoint x="189" y="2915" as="targetPoint" />
            <Array as="points">
              <mxPoint x="240" y="3240" />
              <mxPoint x="140" y="3240" />
              <mxPoint x="140" y="2906" />
            </Array>
          </mxGeometry>
        </mxCell>
        <mxCell id="uQ_xCeELiff1Q2TgGja5-335" value="" style="ellipse;shape=cloud;whiteSpace=wrap;html=1;" vertex="1" parent="1">
          <mxGeometry x="150" y="2840" width="170" height="120" as="geometry" />
        </mxCell>
        <mxCell id="uQ_xCeELiff1Q2TgGja5-336" value="Observers" style="text;html=1;strokeColor=none;fillColor=none;align=center;verticalAlign=middle;whiteSpace=wrap;rounded=0;" vertex="1" parent="1">
          <mxGeometry x="210" y="2885" width="60" height="30" as="geometry" />
        </mxCell>
        <mxCell id="uQ_xCeELiff1Q2TgGja5-337" value="Read&lt;br&gt;State" style="text;html=1;strokeColor=none;fillColor=none;align=center;verticalAlign=middle;whiteSpace=wrap;rounded=0;" vertex="1" parent="1">
          <mxGeometry x="160" y="3105" width="60" height="30" as="geometry" />
        </mxCell>
        <mxCell id="uQ_xCeELiff1Q2TgGja5-338" value="Observer&lt;br&gt;state&lt;br&gt;lock" style="text;html=1;strokeColor=none;fillColor=none;align=center;verticalAlign=middle;whiteSpace=wrap;rounded=0;" vertex="1" parent="1">
          <mxGeometry x="320" y="3110" width="60" height="30" as="geometry" />
        </mxCell>
        <mxCell id="uQ_xCeELiff1Q2TgGja5-339" value="Change State" style="text;html=1;strokeColor=none;fillColor=none;align=center;verticalAlign=middle;whiteSpace=wrap;rounded=0;" vertex="1" parent="1">
          <mxGeometry x="620" y="3110" width="60" height="30" as="geometry" />
        </mxCell>
        <mxCell id="uQ_xCeELiff1Q2TgGja5-340" value="" style="endArrow=classic;html=1;rounded=0;exitX=0.75;exitY=1;exitDx=0;exitDy=0;" edge="1" parent="1" source="uQ_xCeELiff1Q2TgGja5-331">
          <mxGeometry width="50" height="50" relative="1" as="geometry">
            <mxPoint x="440" y="3230" as="sourcePoint" />
            <mxPoint x="600" y="3280" as="targetPoint" />
          </mxGeometry>
        </mxCell>
        <mxCell id="uQ_xCeELiff1Q2TgGja5-341" value="" style="ellipse;whiteSpace=wrap;html=1;aspect=fixed;" vertex="1" parent="1">
          <mxGeometry x="560" y="3280" width="80" height="80" as="geometry" />
        </mxCell>
        <mxCell id="uQ_xCeELiff1Q2TgGja5-342" value="Join" style="text;html=1;strokeColor=none;fillColor=none;align=center;verticalAlign=middle;whiteSpace=wrap;rounded=0;" vertex="1" parent="1">
          <mxGeometry x="630" y="3305" width="60" height="30" as="geometry" />
        </mxCell>
        <mxCell id="uQ_xCeELiff1Q2TgGja5-343" value="" style="endArrow=classic;html=1;rounded=0;exitX=0.5;exitY=1;exitDx=0;exitDy=0;" edge="1" parent="1" source="uQ_xCeELiff1Q2TgGja5-341">
          <mxGeometry width="50" height="50" relative="1" as="geometry">
            <mxPoint x="440" y="3380" as="sourcePoint" />
            <mxPoint x="600" y="3400" as="targetPoint" />
          </mxGeometry>
        </mxCell>
        <mxCell id="uQ_xCeELiff1Q2TgGja5-344" value="" style="rounded=0;whiteSpace=wrap;html=1;" vertex="1" parent="1">
          <mxGeometry x="560" y="3400" width="80" height="10" as="geometry" />
        </mxCell>
        <mxCell id="uQ_xCeELiff1Q2TgGja5-345" value="" style="endArrow=classic;html=1;rounded=0;exitX=0.5;exitY=1;exitDx=0;exitDy=0;" edge="1" parent="1" source="uQ_xCeELiff1Q2TgGja5-344">
          <mxGeometry width="50" height="50" relative="1" as="geometry">
            <mxPoint x="440" y="3530" as="sourcePoint" />
            <mxPoint x="600" y="3440" as="targetPoint" />
          </mxGeometry>
        </mxCell>
        <mxCell id="uQ_xCeELiff1Q2TgGja5-346" value="" style="ellipse;whiteSpace=wrap;html=1;aspect=fixed;" vertex="1" parent="1">
          <mxGeometry x="560" y="3440" width="80" height="80" as="geometry" />
        </mxCell>
        <mxCell id="uQ_xCeELiff1Q2TgGja5-347" value="Return" style="text;html=1;strokeColor=none;fillColor=none;align=center;verticalAlign=middle;whiteSpace=wrap;rounded=0;" vertex="1" parent="1">
          <mxGeometry x="640" y="3465" width="60" height="30" as="geometry" />
        </mxCell>
        <mxCell id="uQ_xCeELiff1Q2TgGja5-350" value="" style="ellipse;whiteSpace=wrap;html=1;aspect=fixed;" vertex="1" parent="1">
          <mxGeometry x="20" y="-1170" width="80" height="80" as="geometry" />
        </mxCell>
        <mxCell id="uQ_xCeELiff1Q2TgGja5-351" value="" style="rounded=0;whiteSpace=wrap;html=1;" vertex="1" parent="1">
          <mxGeometry x="18" y="-1220" width="80" height="10" as="geometry" />
        </mxCell>
        <mxCell id="uQ_xCeELiff1Q2TgGja5-352" value="" style="endArrow=classic;html=1;rounded=0;exitX=0.5;exitY=1;exitDx=0;exitDy=0;entryX=0.5;entryY=0;entryDx=0;entryDy=0;" edge="1" parent="1" target="uQ_xCeELiff1Q2TgGja5-351">
          <mxGeometry width="50" height="50" relative="1" as="geometry">
            <mxPoint x="58" y="-1250" as="sourcePoint" />
            <mxPoint x="308" y="-1160" as="targetPoint" />
          </mxGeometry>
        </mxCell>
        <mxCell id="uQ_xCeELiff1Q2TgGja5-353" value="" style="endArrow=classic;html=1;rounded=0;exitX=0.5;exitY=1;exitDx=0;exitDy=0;entryX=0.5;entryY=0;entryDx=0;entryDy=0;" edge="1" parent="1" source="uQ_xCeELiff1Q2TgGja5-351">
          <mxGeometry width="50" height="50" relative="1" as="geometry">
            <mxPoint x="258" y="-1110" as="sourcePoint" />
            <mxPoint x="58" y="-1170" as="targetPoint" />
          </mxGeometry>
        </mxCell>
        <mxCell id="uQ_xCeELiff1Q2TgGja5-354" value="" style="endArrow=classic;html=1;rounded=0;exitX=0.5;exitY=1;exitDx=0;exitDy=0;" edge="1" parent="1">
          <mxGeometry width="50" height="50" relative="1" as="geometry">
            <mxPoint x="58" y="-1090" as="sourcePoint" />
            <mxPoint x="-22" y="-1050" as="targetPoint" />
          </mxGeometry>
        </mxCell>
        <mxCell id="uQ_xCeELiff1Q2TgGja5-355" value="" style="endArrow=classic;html=1;rounded=0;" edge="1" parent="1">
          <mxGeometry width="50" height="50" relative="1" as="geometry">
            <mxPoint x="58" y="-1090" as="sourcePoint" />
            <mxPoint x="138" y="-1050" as="targetPoint" />
          </mxGeometry>
        </mxCell>
        <mxCell id="uQ_xCeELiff1Q2TgGja5-356" value="" style="rounded=0;whiteSpace=wrap;html=1;" vertex="1" parent="1">
          <mxGeometry x="-62" y="-1050" width="80" height="10" as="geometry" />
        </mxCell>
        <mxCell id="uQ_xCeELiff1Q2TgGja5-357" value="" style="rounded=0;whiteSpace=wrap;html=1;" vertex="1" parent="1">
          <mxGeometry x="98" y="-1050" width="80" height="10" as="geometry" />
        </mxCell>
        <mxCell id="uQ_xCeELiff1Q2TgGja5-358" value="False" style="text;html=1;strokeColor=none;fillColor=none;align=center;verticalAlign=middle;whiteSpace=wrap;rounded=0;" vertex="1" parent="1">
          <mxGeometry x="88" y="-1090" width="60" height="30" as="geometry" />
        </mxCell>
        <mxCell id="uQ_xCeELiff1Q2TgGja5-359" value="True" style="text;html=1;strokeColor=none;fillColor=none;align=center;verticalAlign=middle;whiteSpace=wrap;rounded=0;" vertex="1" parent="1">
          <mxGeometry x="-32" y="-1090" width="60" height="30" as="geometry" />
        </mxCell>
        <mxCell id="uQ_xCeELiff1Q2TgGja5-360" value="" style="ellipse;whiteSpace=wrap;html=1;aspect=fixed;" vertex="1" parent="1">
          <mxGeometry x="102" y="-1000" width="80" height="80" as="geometry" />
        </mxCell>
        <mxCell id="uQ_xCeELiff1Q2TgGja5-361" value="" style="endArrow=classic;html=1;rounded=0;exitX=0.5;exitY=1;exitDx=0;exitDy=0;entryX=0.5;entryY=0;entryDx=0;entryDy=0;" edge="1" parent="1">
          <mxGeometry width="50" height="50" relative="1" as="geometry">
            <mxPoint x="140" y="-1040" as="sourcePoint" />
            <mxPoint x="140" y="-1000" as="targetPoint" />
          </mxGeometry>
        </mxCell>
        <mxCell id="uQ_xCeELiff1Q2TgGja5-362" value="" style="endArrow=classic;html=1;rounded=0;exitX=0.5;exitY=1;exitDx=0;exitDy=0;" edge="1" parent="1">
          <mxGeometry width="50" height="50" relative="1" as="geometry">
            <mxPoint x="140" y="-920" as="sourcePoint" />
            <mxPoint x="60" y="-880" as="targetPoint" />
          </mxGeometry>
        </mxCell>
        <mxCell id="uQ_xCeELiff1Q2TgGja5-363" value="" style="endArrow=classic;html=1;rounded=0;" edge="1" parent="1">
          <mxGeometry width="50" height="50" relative="1" as="geometry">
            <mxPoint x="140" y="-920" as="sourcePoint" />
            <mxPoint x="220" y="-880" as="targetPoint" />
          </mxGeometry>
        </mxCell>
        <mxCell id="uQ_xCeELiff1Q2TgGja5-364" value="" style="rounded=0;whiteSpace=wrap;html=1;" vertex="1" parent="1">
          <mxGeometry x="20" y="-880" width="80" height="10" as="geometry" />
        </mxCell>
        <mxCell id="uQ_xCeELiff1Q2TgGja5-365" value="" style="rounded=0;whiteSpace=wrap;html=1;" vertex="1" parent="1">
          <mxGeometry x="180" y="-880" width="80" height="10" as="geometry" />
        </mxCell>
        <mxCell id="uQ_xCeELiff1Q2TgGja5-366" value="False" style="text;html=1;strokeColor=none;fillColor=none;align=center;verticalAlign=middle;whiteSpace=wrap;rounded=0;" vertex="1" parent="1">
          <mxGeometry x="170" y="-920" width="60" height="30" as="geometry" />
        </mxCell>
        <mxCell id="uQ_xCeELiff1Q2TgGja5-367" value="True" style="text;html=1;strokeColor=none;fillColor=none;align=center;verticalAlign=middle;whiteSpace=wrap;rounded=0;" vertex="1" parent="1">
          <mxGeometry x="50" y="-920" width="60" height="30" as="geometry" />
        </mxCell>
        <mxCell id="uQ_xCeELiff1Q2TgGja5-369" value="" style="endArrow=classic;html=1;rounded=0;exitX=0.5;exitY=1;exitDx=0;exitDy=0;entryX=1;entryY=0.5;entryDx=0;entryDy=0;" edge="1" parent="1" source="uQ_xCeELiff1Q2TgGja5-365" target="uQ_xCeELiff1Q2TgGja5-281">
          <mxGeometry width="50" height="50" relative="1" as="geometry">
            <mxPoint x="130" y="-1040" as="sourcePoint" />
            <mxPoint x="1220" y="2910" as="targetPoint" />
            <Array as="points">
              <mxPoint x="220" y="-840" />
              <mxPoint x="830" y="-840" />
              <mxPoint x="830" y="2520" />
            </Array>
          </mxGeometry>
        </mxCell>
        <mxCell id="uQ_xCeELiff1Q2TgGja5-370" value="" style="endArrow=classic;html=1;rounded=0;exitX=0.5;exitY=1;exitDx=0;exitDy=0;entryX=1;entryY=0.5;entryDx=0;entryDy=0;" edge="1" parent="1" source="uQ_xCeELiff1Q2TgGja5-356" target="uQ_xCeELiff1Q2TgGja5-53">
          <mxGeometry width="50" height="50" relative="1" as="geometry">
            <mxPoint x="260" y="-1000" as="sourcePoint" />
            <mxPoint x="-20" y="-1000" as="targetPoint" />
            <Array as="points">
              <mxPoint x="-22" y="-1000" />
              <mxPoint x="-150" y="-1000" />
              <mxPoint x="-150" y="-1130" />
            </Array>
          </mxGeometry>
        </mxCell>
        <mxCell id="uQ_xCeELiff1Q2TgGja5-372" value="" style="endArrow=classic;html=1;rounded=0;exitX=0.5;exitY=0;exitDx=0;exitDy=0;entryX=0;entryY=0.5;entryDx=0;entryDy=0;" edge="1" parent="1" source="uQ_xCeELiff1Q2TgGja5-64" target="uQ_xCeELiff1Q2TgGja5-2">
          <mxGeometry width="50" height="50" relative="1" as="geometry">
            <mxPoint x="260" y="-1250" as="sourcePoint" />
            <mxPoint x="310" y="-1300" as="targetPoint" />
            <Array as="points">
              <mxPoint x="-220" y="-1290" />
            </Array>
          </mxGeometry>
        </mxCell>
        <mxCell id="uQ_xCeELiff1Q2TgGja5-373" value="If ( state&amp;nbsp;&lt;br&gt;==&amp;nbsp;&lt;br&gt;continue )" style="text;html=1;strokeColor=none;fillColor=none;align=center;verticalAlign=middle;whiteSpace=wrap;rounded=0;" vertex="1" parent="1">
          <mxGeometry x="102" y="-1145" width="60" height="30" as="geometry" />
        </mxCell>
        <mxCell id="uQ_xCeELiff1Q2TgGja5-374" value="If ( state&amp;nbsp;&lt;br&gt;==&amp;nbsp;&lt;br&gt;start )" style="text;html=1;strokeColor=none;fillColor=none;align=center;verticalAlign=middle;whiteSpace=wrap;rounded=0;" vertex="1" parent="1">
          <mxGeometry x="190" y="-975" width="60" height="30" as="geometry" />
        </mxCell>
        <mxCell id="uQ_xCeELiff1Q2TgGja5-376" value="" style="endArrow=classic;html=1;rounded=0;exitX=0.55;exitY=0.95;exitDx=0;exitDy=0;exitPerimeter=0;entryX=0.5;entryY=0;entryDx=0;entryDy=0;" edge="1" parent="1" source="uQ_xCeELiff1Q2TgGja5-208" target="uQ_xCeELiff1Q2TgGja5-194">
          <mxGeometry width="50" height="50" relative="1" as="geometry">
            <mxPoint x="680" y="1220" as="sourcePoint" />
            <mxPoint x="730" y="1170" as="targetPoint" />
          </mxGeometry>
        </mxCell>
        <mxCell id="uQ_xCeELiff1Q2TgGja5-379" value="" style="endArrow=classic;html=1;rounded=0;entryX=0.5;entryY=1;entryDx=0;entryDy=0;exitX=0.25;exitY=1;exitDx=0;exitDy=0;" edge="1" parent="1" source="uQ_xCeELiff1Q2TgGja5-194" target="uQ_xCeELiff1Q2TgGja5-190">
          <mxGeometry width="50" height="50" relative="1" as="geometry">
            <mxPoint x="720" y="1330" as="sourcePoint" />
            <mxPoint x="530" y="1250" as="targetPoint" />
            <Array as="points">
              <mxPoint x="693" y="1320" />
              <mxPoint x="480" y="1320" />
            </Array>
          </mxGeometry>
        </mxCell>
        <mxCell id="uQ_xCeELiff1Q2TgGja5-380" value="" style="endArrow=classic;html=1;rounded=0;exitX=0.5;exitY=0;exitDx=0;exitDy=0;entryX=0.4;entryY=0.1;entryDx=0;entryDy=0;entryPerimeter=0;" edge="1" parent="1" source="uQ_xCeELiff1Q2TgGja5-190" target="uQ_xCeELiff1Q2TgGja5-208">
          <mxGeometry width="50" height="50" relative="1" as="geometry">
            <mxPoint x="410" y="1170" as="sourcePoint" />
            <mxPoint x="460" y="1120" as="targetPoint" />
            <Array as="points">
              <mxPoint x="480" y="1080" />
              <mxPoint x="688" y="1080" />
            </Array>
          </mxGeometry>
        </mxCell>
        <mxCell id="uQ_xCeELiff1Q2TgGja5-381" value="" style="rounded=0;whiteSpace=wrap;html=1;" vertex="1" parent="1">
          <mxGeometry x="676" y="2119" width="80" height="10" as="geometry" />
        </mxCell>
        <mxCell id="uQ_xCeELiff1Q2TgGja5-383" value="" style="endArrow=classic;html=1;rounded=0;exitX=0.55;exitY=0.95;exitDx=0;exitDy=0;exitPerimeter=0;entryX=0.5;entryY=0;entryDx=0;entryDy=0;" edge="1" parent="1" source="uQ_xCeELiff1Q2TgGja5-265" target="uQ_xCeELiff1Q2TgGja5-381">
          <mxGeometry width="50" height="50" relative="1" as="geometry">
            <mxPoint x="480" y="2060" as="sourcePoint" />
            <mxPoint x="530" y="2010" as="targetPoint" />
          </mxGeometry>
        </mxCell>
        <mxCell id="uQ_xCeELiff1Q2TgGja5-384" value="" style="endArrow=classic;html=1;rounded=0;exitX=0.25;exitY=1;exitDx=0;exitDy=0;" edge="1" parent="1" source="uQ_xCeELiff1Q2TgGja5-381">
          <mxGeometry width="50" height="50" relative="1" as="geometry">
            <mxPoint x="480" y="2060" as="sourcePoint" />
            <mxPoint x="480" y="2080" as="targetPoint" />
            <Array as="points">
              <mxPoint x="696" y="2160" />
              <mxPoint x="480" y="2160" />
            </Array>
          </mxGeometry>
        </mxCell>
        <mxCell id="uQ_xCeELiff1Q2TgGja5-385" value="" style="endArrow=classic;html=1;rounded=0;exitX=0.75;exitY=1;exitDx=0;exitDy=0;entryX=0.875;entryY=0.5;entryDx=0;entryDy=0;entryPerimeter=0;" edge="1" parent="1" source="uQ_xCeELiff1Q2TgGja5-381" target="uQ_xCeELiff1Q2TgGja5-265">
          <mxGeometry width="50" height="50" relative="1" as="geometry">
            <mxPoint x="500" y="2060" as="sourcePoint" />
            <mxPoint x="550" y="2010" as="targetPoint" />
            <Array as="points">
              <mxPoint x="736" y="2160" />
              <mxPoint x="800" y="2160" />
              <mxPoint x="800" y="2035" />
            </Array>
          </mxGeometry>
        </mxCell>
        <mxCell id="uQ_xCeELiff1Q2TgGja5-386" value="" style="endArrow=classic;html=1;rounded=0;exitX=0.75;exitY=1;exitDx=0;exitDy=0;entryX=0.875;entryY=0.5;entryDx=0;entryDy=0;entryPerimeter=0;" edge="1" parent="1" source="uQ_xCeELiff1Q2TgGja5-194" target="uQ_xCeELiff1Q2TgGja5-208">
          <mxGeometry width="50" height="50" relative="1" as="geometry">
            <mxPoint x="450" y="1240" as="sourcePoint" />
            <mxPoint x="500" y="1190" as="targetPoint" />
            <Array as="points">
              <mxPoint x="733" y="1320" />
              <mxPoint x="800" y="1320" />
              <mxPoint x="800" y="1195" />
            </Array>
          </mxGeometry>
        </mxCell>
      </root>
    </mxGraphModel>
  </diagram>
</mxfile>
